<svg width="32" height="32" viewBox="0 0 32 32" fill="none" xmlns="http://www.w3.org/2000/svg">
<path d="M15.2021 18.9986L16.7611 26.8041C16.8693 27.3457 16.518 27.8725 15.9764 27.9806C15.9119 27.9935 15.8463 28 15.7805 28H13.8198C13.3431 28 12.9327 27.6635 12.8392 27.1961L11 18V18" stroke="#464646" stroke-width="2" stroke-linecap="round" stroke-linejoin="round"/>
<path fill-rule="evenodd" clip-rule="evenodd" d="M9 10H13V18H9C6.79086 18 5 16.2091 5 14C5 11.7909 6.79086 10 9 10Z" stroke="#464646" stroke-width="2" stroke-linecap="round" stroke-linejoin="round"/>
<path fill-rule="evenodd" clip-rule="evenodd" d="M13 10C19 8.66667 23.3333 6.66667 26 4C26.5523 4 27 4.44772 27 5V23C27 23.5128 26.614 23.9355 26.1166 23.9933L26 24C23.3333 21.3333 19 19.3333 13 18V10Z" stroke="#464646" stroke-width="2" stroke-linecap="round" stroke-linejoin="round"/>
</svg>
