<svg width="20" height="20" viewBox="0 0 20 20" fill="none" xmlns="http://www.w3.org/2000/svg">
<g clip-path="url(#clip0_1802_2610)">
<path d="M16.6667 14.1667H18.3334V15.8334H1.66669V14.1667H3.33335V8.33341C3.33335 6.5653 4.03573 4.86961 5.28598 3.61937C6.53622 2.36913 8.23191 1.66675 10 1.66675C11.7681 1.66675 13.4638 2.36913 14.7141 3.61937C15.9643 4.86961 16.6667 6.5653 16.6667 8.33341V14.1667ZM15 14.1667V8.33341C15 7.00733 14.4732 5.73556 13.5356 4.79788C12.5979 3.8602 11.3261 3.33341 10 3.33341C8.67394 3.33341 7.40217 3.8602 6.46449 4.79788C5.5268 5.73556 5.00002 7.00733 5.00002 8.33341V14.1667H15ZM7.50002 17.5001H12.5V19.1667H7.50002V17.5001Z" fill="#18181B"/>
</g>
<defs>
<clipPath id="clip0_1802_2610">
<rect width="20" height="20" fill="white"/>
</clipPath>
</defs>
</svg>
