<svg width="43" height="40" viewBox="0 0 43 40" fill="none" xmlns="http://www.w3.org/2000/svg">
<path fill-rule="evenodd" clip-rule="evenodd" d="M4 30.5402L0.0381416 3.76134C-0.0342484 3.29464 -0.00332804 2.81811 0.128622 2.36457C0.260982 1.9096 0.491582 1.48944 0.803462 1.1325C1.11529 0.77562 1.50089 0.49045 1.93309 0.29544C2.36516 0.10048 2.83424 -8.99396e-05 3.30838 6.03521e-08H18.6935C19.1676 0.00018006 19.6365 0.10098 20.0684 0.29611C20.5003 0.49126 20.8857 0.77648 21.1973 1.13332C21.5089 1.49023 21.7393 1.91028 21.8715 2.36509C22.0033 2.81841 22.0342 3.29468 21.9619 3.76114L18 30.5402V32.5C18 33.4154 17.6513 34.3011 17.0184 34.9603C16.3843 35.6209 15.5152 36 14.6 36H7.4C6.4848 36 5.6157 35.6209 4.9816 34.9603C4.3487 34.3011 4 33.4154 4 32.5V30.5402ZM2.75566 2.11845C2.92828 2.04056 3.11679 1.99995 3.3081 2H18.6932C18.8843 2.00012 19.0725 2.04083 19.2449 2.11872C19.4174 2.19664 19.5692 2.30961 19.6907 2.44877C19.8122 2.58787 19.9006 2.74993 19.9511 2.92344C20.0015 3.09691 20.013 3.27863 19.9852 3.45651L16.2061 29H5.7939L2.01608 3.46484L2.01478 3.45651C1.98692 3.27857 1.99852 3.09677 2.049 2.92324C2.0995 2.74967 2.18798 2.58757 2.30954 2.44845C2.43115 2.30927 2.58308 2.19632 2.75566 2.11845ZM15.5757 33.5752C15.843 33.2968 16 32.9107 16 32.5V31.4667H6V32.5C6 32.9107 6.157 33.2968 6.4243 33.5752C6.6903 33.8523 7.0422 34 7.4 34H14.6C14.9578 34 15.3097 33.8523 15.5757 33.5752Z" fill="black"/>
<path fill-rule="evenodd" clip-rule="evenodd" d="M24.2849 14.032C23.8159 14.4641 23.4399 14.9905 23.2455 15.3307L22.0878 14.6693C22.3379 14.2317 22.7952 13.5915 23.3817 13.0513C23.9531 12.525 24.7493 12 25.6667 12H37V13.3333H31.6667V17.3333H34.3333C35.0697 17.3333 35.6667 17.9303 35.6667 18.6667V20H36.3333C38.5425 20 40.3333 21.7909 40.3333 24V34C40.3333 35.1046 39.4379 36 38.3333 36H23.6667C22.5621 36 21.6667 35.1046 21.6667 34V24C21.6667 21.7909 23.4575 20 25.6667 20H26.3333V18.6667C26.3333 17.9303 26.9303 17.3333 27.6667 17.3333H30.3333V13.3333H25.6667C25.2507 13.3333 24.7691 13.5861 24.2849 14.032ZM23 24C23 22.5273 24.1939 21.3333 25.6667 21.3333H36.3333C37.8061 21.3333 39 22.5273 39 24V34C39 34.3682 38.7015 34.6667 38.3333 34.6667H23.6667C23.2985 34.6667 23 34.3682 23 34V24ZM34.3333 18.6667V20H27.6667V18.6667H34.3333Z" fill="black"/>
</svg>
