<svg width="37" height="36" viewBox="0 0 37 36" fill="none" xmlns="http://www.w3.org/2000/svg">
<path fill-rule="evenodd" clip-rule="evenodd" d="M34.1036 19.4912C33.5413 19.9874 32.8606 20.3567 32.1036 20.5481V34.0001H4.10327V20.5827C3.34831 20.3993 2.66786 20.0394 2.10327 19.5527V36.0001H34.1036V19.4912Z" fill="black"/>
<path fill-rule="evenodd" clip-rule="evenodd" d="M11.6503 9H2.71531C2.00951 9 1.39716 9.4872 1.23864 10.175L0.12734 14.9969C-0.58053 18.0683 1.75234 21 4.90422 21C6.63842 21 8.16222 20.0995 9.03372 18.7406C10.0405 20.1107 11.6633 21 13.4939 21C15.4179 21 17.1124 20.0177 18.1033 18.5273C19.0943 20.0177 20.7888 21 22.7127 21C24.5433 21 26.1662 20.1107 27.173 18.7406C28.0444 20.0995 29.5683 21 31.3024 21C34.4543 21 36.7872 18.0683 36.0793 14.9969L34.968 10.175C34.8095 9.4872 34.1972 9 33.4914 9H24.5566V10C24.5566 10.3453 24.5129 10.6803 24.4306 11H26.244V15.4687C26.244 17.4189 24.663 19 22.7127 19C20.7625 19 19.1814 17.4189 19.1814 15.4687V14H17.0252V15.4687C17.0252 17.4189 15.4442 19 13.4939 19C11.5436 19 9.96262 17.4189 9.96262 15.4687V11H11.7763C11.694 10.6803 11.6503 10.3453 11.6503 10V9ZM3.10095 11L2.07625 15.446C1.65718 17.2644 3.03828 19 4.90422 19C6.50712 19 7.80642 17.7006 7.80642 16.0978V11H3.10095ZM33.1057 11H28.4003V16.0978C28.4003 17.7006 29.6996 19 31.3024 19C33.1684 19 34.5495 17.2644 34.1304 15.446L33.1057 11Z" fill="black"/>
<path fill-rule="evenodd" clip-rule="evenodd" d="M11.1035 4.00005C11.1035 1.79086 12.8944 0 15.1035 0H21.1035C23.3127 0 25.1035 1.79086 25.1035 4.00005V10C25.1035 12.2091 23.3127 14 21.1035 14H15.1035C12.8944 14 11.1035 12.2091 11.1035 10V4.00005ZM15.1035 2C13.999 2 13.1035 2.89543 13.1035 4.00005V10C13.1035 11.1045 13.999 12 15.1035 12H21.1035C22.2081 12 23.1035 11.1045 23.1035 10V4.00005C23.1035 2.89543 22.2081 2 21.1035 2H15.1035Z" fill="black"/>
<path fill-rule="evenodd" clip-rule="evenodd" d="M14.1035 24.9521H9.10352V33.9521H14.1035V24.9521ZM7.10352 22.9521V35.9521H16.1035V22.9521H7.10352Z" fill="black"/>
<path fill-rule="evenodd" clip-rule="evenodd" d="M29.1035 24.9521H21.1035V28.9521H29.1035V24.9521ZM19.1035 22.9521V30.9521H31.1035V22.9521H19.1035Z" fill="black"/>
<path d="M18.4403 4.17048C18.6019 4.09636 18.7662 4.03599 18.9299 3.98247C17.3985 4.90909 16.6644 6.58829 17.281 7.93271C17.8975 9.27712 19.6486 9.81557 21.35 9.25968C21.2026 9.34881 21.0501 9.43478 20.8884 9.50894C19.0458 10.354 17.0036 9.84405 16.3276 8.36992C15.6516 6.89577 16.5976 5.01552 18.4403 4.17048Z" fill="black"/>
</svg>
