<svg width="86" height="86" viewBox="0 0 86 86" fill="none" xmlns="http://www.w3.org/2000/svg">
<path d="M23.4453 21.7356C21.8825 21.7356 20.3836 21.1148 19.2785 20.0097C18.1734 18.9046 17.5526 17.4058 17.5526 15.8429C17.5526 14.2801 18.1734 12.7812 19.2785 11.6761C20.3836 10.571 21.8825 9.9502 23.4453 9.9502C25.0082 9.9502 26.507 10.571 27.6121 11.6761C28.7172 12.7812 29.3381 14.2801 29.3381 15.8429C29.3381 17.4058 28.7172 18.9046 27.6121 20.0097C26.507 21.1148 25.0082 21.7356 23.4453 21.7356Z" fill="#EBEBEB"/>
<path d="M21.9918 14.5303H20.7723V18.4708H21.9918V14.5303Z" fill="white"/>
<path d="M21.3761 14.0142C21.5203 14.0155 21.6616 13.974 21.7821 13.8949C21.9027 13.8158 21.997 13.7027 22.0531 13.5698C22.1093 13.437 22.1247 13.2905 22.0974 13.1489C22.0701 13.0074 22.0013 12.8771 21.8999 12.7746C21.7984 12.6722 21.6688 12.6022 21.5274 12.5736C21.3861 12.5449 21.2395 12.5589 21.1061 12.6138C20.9728 12.6687 20.8588 12.7619 20.7785 12.8817C20.6983 13.0015 20.6554 13.1424 20.6554 13.2866C20.6549 13.4785 20.7305 13.6628 20.8656 13.7992C21.0006 13.9355 21.1842 14.0128 21.3761 14.0142Z" fill="white"/>
<path d="M23.9423 16.4015C23.9423 15.8477 24.1969 15.5175 24.6854 15.5175C25.1326 15.5175 25.3493 15.8339 25.3493 16.4015V18.4655H26.5619V15.975C26.5619 14.9189 25.965 14.4098 25.1291 14.4098C24.892 14.4067 24.6582 14.465 24.4503 14.5789C24.2423 14.6928 24.0674 14.8585 23.9423 15.0599V14.5302H22.771V18.469H23.9423V16.4015Z" fill="white"/>
<path d="M31.3418 4.10889L32.1484 5.58293L33.6242 6.39133L32.1484 7.19801L31.3418 8.67205L30.5351 7.19801L29.0593 6.39133L30.5351 5.58293L31.3418 4.10889Z" fill="#F5F5F5"/>
<path d="M64.9936 44.0781L65.5991 45.1858L66.705 45.7895L65.5991 46.395L64.9936 47.5026L64.3882 46.395L63.2822 45.7895L64.3882 45.1858L64.9936 44.0781Z" fill="#EBEBEB"/>
<path d="M66.705 38.6157L66.9785 39.1145L67.4773 39.388L66.9785 39.6615L66.705 40.1603L66.4333 39.6615L65.9327 39.388L66.4333 39.1145L66.705 38.6157Z" fill="#E0E0E0"/>
<path d="M25.5781 4.6626L25.8515 5.16312L26.3503 5.43488L25.8515 5.70836L25.5781 6.20716L25.3063 5.70836L24.8058 5.43488L25.3063 5.16312L25.5781 4.6626Z" fill="#E0E0E0"/>
<path d="M11.8903 51.0423C12.2077 50.8969 12.4755 50.6618 12.6607 50.3659C12.846 50.07 12.9405 49.7263 12.9326 49.3773C12.9326 48.3918 12.1672 47.6006 11.2436 47.6075C10.32 47.6143 9.57863 48.421 9.58723 49.4066C9.58474 49.7585 9.68669 50.1032 9.8802 50.3971C10.0737 50.6911 10.35 50.921 10.6743 51.0578C8.10459 51.4792 8.25595 54.2759 8.25595 54.2759L14.343 54.2243C14.343 54.2243 14.448 51.3949 11.8903 51.0423Z" fill="#E0E0E0"/>
<path d="M70.2861 69.4773C70.2432 69.2567 70.1233 69.0585 69.9478 68.9181C69.7722 68.7777 69.5525 68.7042 69.3279 68.7109C69.1032 68.7175 68.8882 68.8037 68.7213 68.9542C68.5543 69.1047 68.4463 69.3096 68.4164 69.5324C68.3852 69.3099 68.276 69.1058 68.1082 68.9564C67.9405 68.8071 67.7251 68.7221 67.5006 68.7167C67.276 68.7114 67.0569 68.7859 66.8822 68.9271C66.7075 69.0683 66.5886 69.267 66.5468 69.4876C66.5018 69.8137 66.5844 70.1446 66.7773 70.4113C66.9683 70.6742 67.1926 70.9113 67.4446 71.1165C67.7886 71.4209 68.0999 71.7047 68.4405 72.0074C68.7845 71.7013 69.0649 71.414 69.402 71.1079C69.653 70.9006 69.8756 70.6612 70.0642 70.3958C70.2525 70.1291 70.3318 69.8006 70.2861 69.4773Z" fill="#EBEBEB"/>
<path d="M74.2506 33.2214L74.9025 33.0924L75.9345 30.8254L75.6765 29.5234C75.6765 29.5234 76.6724 29.2619 76.8925 30.9905C77.1127 32.7191 77.154 32.2599 77.154 32.2599C77.154 32.2599 79.2954 31.8437 79.5104 31.9933C79.6669 32.1034 80.1468 34.219 80.3979 35.3679C80.4674 35.6433 80.4426 35.9341 80.3276 36.1938C80.2126 36.4534 80.0139 36.6671 79.7632 36.8007C79.6918 36.8359 79.616 36.8613 79.5379 36.8764C79.0047 36.983 76.1908 37.0897 76.1908 37.0897L75.0642 37.3133L74.2506 33.2214Z" fill="#E0E0E0"/>
<path d="M72.3123 33.2338L73.5971 37.6163L74.7151 37.3944L73.8482 33.0239L72.3123 33.2338Z" fill="#E0E0E0"/>
<path d="M80.9208 80.7229C80.9208 80.7487 63.8636 80.7677 42.828 80.7677C21.7924 80.7677 4.72998 80.7487 4.72998 80.7229C4.72998 80.6971 21.7838 80.6782 42.828 80.6782C63.8722 80.6782 80.9208 80.6989 80.9208 80.7229Z" fill="#263238"/>
<path d="M67.6699 31.5017C66.003 32.3119 64.0825 32.427 62.3308 31.8216C60.5791 31.2162 59.1395 29.9398 58.3286 28.2732C57.5183 26.6063 57.4033 24.6859 58.0087 22.9341C58.6141 21.1824 59.8904 19.7428 61.557 18.9319C62.3823 18.5305 63.2787 18.2956 64.1948 18.2406C65.1109 18.1856 66.0289 18.3116 66.8963 18.6114C67.7638 18.9112 68.5637 19.3789 69.2503 19.9878C69.937 20.5968 70.497 21.335 70.8983 22.1604C71.2998 22.9857 71.5347 23.882 71.5897 24.7981C71.6447 25.7143 71.5187 26.6323 71.2189 27.4997C70.9191 28.3671 70.4514 29.167 69.8424 29.8537C69.2335 30.5403 68.4953 31.1003 67.6699 31.5017Z" fill="#167D85"/>
<path d="M62.8866 26.7784C62.9122 26.7778 62.9374 26.7715 62.9602 26.7599C62.9831 26.7484 63.0031 26.7318 63.0187 26.7116C63.0344 26.6913 63.0453 26.6678 63.0507 26.6427C63.0561 26.6177 63.0559 26.5918 63.05 26.5668C63.0328 26.4825 62.9864 26.2693 62.9692 26.1815C62.9451 26.0594 62.9158 26.0267 62.7972 25.9717C62.4889 25.83 62.2439 25.5795 62.1092 25.2682C61.5828 24.1846 61.9217 22.8207 63.222 22.1894C64.3727 21.6287 65.3479 22.0174 65.802 22.9634C66.4023 24.2001 66.3627 25.509 65.5509 25.9046C65.4497 25.9603 65.3368 25.9915 65.2213 25.9956C65.1059 25.9997 64.9911 25.9767 64.8862 25.9283C64.7812 25.88 64.6892 25.8076 64.6173 25.7172C64.5454 25.6267 64.4958 25.5207 64.4724 25.4075C64.3383 24.8021 64.3004 24.0952 64.1112 23.703C63.9392 23.359 63.609 23.1509 63.2203 23.3401C62.761 23.5637 62.6234 24.2173 62.933 24.852C63.0434 25.0867 63.2023 25.2954 63.3992 25.4643C63.3992 25.4643 63.8979 27.6797 63.9839 28.0684C64.1559 28.8407 64.7098 29.6164 64.7631 29.7041C64.7707 29.7138 64.7809 29.7212 64.7926 29.7254C64.8042 29.7296 64.8168 29.7303 64.8289 29.7276C64.841 29.7249 64.852 29.7189 64.8608 29.7101C64.8695 29.7014 64.8756 29.6904 64.8784 29.6783C64.8938 29.6026 65.1123 28.6635 64.9695 27.8998C64.93 27.6831 64.6977 26.5737 64.6977 26.5737C64.985 26.7853 65.5423 26.8248 66.0049 26.5995C67.3809 25.9287 67.7078 24.2173 66.889 22.5351C66.2716 21.2641 64.6169 20.6036 62.9812 21.3999C60.943 22.3907 60.6265 24.3497 61.2182 25.5675C61.576 26.3054 62.1693 26.8317 62.8866 26.7784Z" fill="white"/>
<path d="M74.648 51.2145C74.0565 50.989 73.5152 50.649 73.0552 50.214C72.5952 49.7791 72.2254 49.2577 71.9671 48.6797C71.7088 48.1017 71.567 47.4785 71.5498 46.8456C71.5325 46.2128 71.6402 45.5827 71.8668 44.9916C72.0922 44.4001 72.432 43.8588 72.8667 43.3988C73.3015 42.9387 73.8227 42.5689 74.4005 42.3104C74.9783 42.052 75.6014 41.9099 76.2341 41.8925C76.8668 41.875 77.4968 41.9824 78.088 42.2086C78.6795 42.4342 79.2208 42.7742 79.6808 43.2091C80.1408 43.6441 80.5105 44.1655 80.7689 44.7434C81.0272 45.3214 81.169 45.9447 81.1862 46.5775C81.2035 47.2104 81.0957 47.8404 80.8692 48.4316C80.6438 49.0231 80.304 49.5643 79.8693 50.0244C79.4345 50.4844 78.9133 50.8542 78.3355 51.1127C77.7577 51.3712 77.1346 51.5132 76.5019 51.5307C75.8692 51.5482 75.2392 51.4407 74.648 51.2145Z" fill="#167D85"/>
<path fill-rule="evenodd" clip-rule="evenodd" d="M78.886 47.5305C79.1009 46.8982 79.0639 46.2075 78.7826 45.6018C78.5013 44.9961 77.9974 44.5222 77.3756 44.2785C76.7539 44.0349 76.0621 44.0403 75.4442 44.2935C74.8263 44.5468 74.3298 45.0285 74.058 45.6385C74.0425 45.6729 74.0287 45.709 74.015 45.7434C73.8466 46.1816 73.8026 46.6578 73.8877 47.1194L72.9572 48.2426L74.4639 48.3286C74.7543 48.672 75.1289 48.934 75.5511 49.089C75.9732 49.244 76.4284 49.2866 76.872 49.2128C77.3156 49.1389 77.7324 48.951 78.0815 48.6676C78.4307 48.3841 78.7002 48.0148 78.8636 47.5959C78.8723 47.5745 78.8798 47.5527 78.886 47.5305ZM75.6662 48.6881C75.2674 48.5367 74.9222 48.2711 74.6737 47.9244L73.7948 47.8745L74.3366 47.2209C74.2151 46.7806 74.2374 46.313 74.4002 45.8862C74.426 45.8208 74.4553 45.7555 74.4862 45.6935C74.7313 45.2082 75.1486 44.8317 75.6567 44.6379C76.1647 44.4441 76.7267 44.4469 77.2328 44.6457C77.7389 44.8445 78.1525 45.225 78.3928 45.7128C78.633 46.2006 78.6825 46.7604 78.5317 47.2828C78.5162 47.3379 78.499 47.3912 78.4783 47.4445C78.27 47.9821 77.8568 48.415 77.3295 48.6481C76.8023 48.8813 76.204 48.8957 75.6662 48.6881Z" fill="white"/>
<path fill-rule="evenodd" clip-rule="evenodd" d="M77.3656 47.5749C77.3157 47.5233 77.08 47.2688 77.0319 47.2309C76.9837 47.1931 76.9493 47.1656 76.8874 47.2103C76.8255 47.255 76.6586 47.3427 76.6105 47.3685C76.5623 47.3943 76.5245 47.3857 76.4763 47.3341C76.3274 47.1978 76.2034 47.0366 76.11 46.8577C76.0265 46.6895 75.9685 46.5098 75.938 46.3245C75.9276 46.2523 75.9689 46.2316 76.0102 46.2144C76.0515 46.1972 76.0962 46.168 76.1392 46.1456L76.1719 46.125C76.1944 46.1076 76.2157 46.0886 76.2355 46.0682C76.2502 46.0554 76.2612 46.039 76.2675 46.0206C76.2739 46.0022 76.2753 45.9824 76.2716 45.9633C76.2716 45.9289 76.2596 45.5918 76.2544 45.4559C76.2493 45.32 76.1925 45.32 76.1581 45.3063C76.1237 45.2925 76.0859 45.2719 76.0463 45.2581C76.0159 45.2471 75.9836 45.2426 75.9513 45.2446C75.9191 45.2467 75.8876 45.2554 75.8588 45.2701C75.7679 45.3082 75.6858 45.3647 75.6177 45.4361C75.5497 45.5074 75.4971 45.592 75.4632 45.6847C75.4383 45.7527 75.4226 45.8239 75.4168 45.8962C75.407 46.0617 75.4262 46.2276 75.4736 46.3864C75.489 46.4363 75.6352 47.1965 76.1478 47.6644C76.6604 48.1322 76.693 48.0531 76.8066 48.0841C76.8967 48.1016 76.9895 48.0994 77.0786 48.0774C77.1677 48.0554 77.251 48.0142 77.3226 47.9568C77.3957 47.8842 77.4454 47.7913 77.4653 47.6902C77.4464 47.6575 77.4137 47.6265 77.3656 47.5749Z" fill="white"/>
<path d="M11.9763 28.9372C11.0015 28.9372 10.0665 28.55 9.37723 27.8606C8.68791 27.1713 8.30066 26.2364 8.30066 25.2616C8.30066 24.2867 8.68791 23.3518 9.37723 22.6625C10.0665 21.9732 11.0015 21.5859 11.9763 21.5859C12.459 21.5859 12.937 21.681 13.3829 21.8657C13.8289 22.0504 14.2341 22.3212 14.5754 22.6625C14.9167 23.0038 15.1874 23.409 15.3721 23.855C15.5569 24.3009 15.6519 24.7789 15.6519 25.2616C15.6519 25.7443 15.5569 26.2222 15.3721 26.6682C15.1874 27.1141 14.9167 27.5193 14.5754 27.8606C14.2341 28.202 13.8289 28.4727 13.3829 28.6574C12.937 28.8421 12.459 28.9372 11.9763 28.9372Z" fill="#167D85"/>
<path d="M10.0189 26.4879C10.3719 26.7131 10.78 26.8371 11.1986 26.8464C11.6172 26.8556 12.0303 26.7498 12.393 26.5405C12.7556 26.3311 13.0538 26.0263 13.2551 25.6591C13.4564 25.292 13.5531 24.8766 13.5346 24.4583C13.69 24.3455 13.8244 24.2064 13.9319 24.0472C13.7847 24.1118 13.6288 24.1547 13.4692 24.1745C13.6375 24.0762 13.7645 23.9204 13.827 23.7359C13.6678 23.8306 13.4931 23.8964 13.311 23.9303C13.1904 23.7983 13.0292 23.7103 12.853 23.6801C12.6768 23.6498 12.4956 23.6791 12.3379 23.7633C12.1801 23.8475 12.0549 23.9818 11.982 24.145C11.909 24.3082 11.8925 24.4911 11.935 24.6647C11.6154 24.6483 11.3029 24.5649 11.0175 24.42C10.7322 24.2751 10.4805 24.072 10.2786 23.8236C10.1764 24.0008 10.1452 24.2102 10.1915 24.4095C10.2378 24.6088 10.3581 24.783 10.528 24.8969C10.4002 24.8936 10.2751 24.8594 10.1634 24.7972C10.1613 24.9844 10.2245 25.1666 10.3422 25.3123C10.46 25.458 10.6248 25.558 10.8084 25.5952C10.6901 25.6275 10.5659 25.6322 10.4455 25.609C10.497 25.7684 10.5969 25.9077 10.7313 26.0076C10.8657 26.1075 11.028 26.1629 11.1954 26.1663C10.8604 26.4231 10.438 26.5386 10.0189 26.4879Z" fill="white"/>
<path d="M18.576 70.109C16.9436 70.4967 15.2241 70.2204 13.7953 69.3409C12.3666 68.4614 11.3455 67.0506 10.9564 65.4186C10.7635 64.6095 10.7319 63.7703 10.8636 62.949C10.9952 62.1277 11.2874 61.3404 11.7235 60.6321C12.1596 59.9238 12.731 59.3084 13.4051 58.8211C14.0792 58.3338 14.8427 57.9841 15.652 57.7921C16.4606 57.5994 17.2993 57.5678 18.1201 57.6992C18.9409 57.8307 19.7278 58.1225 20.4359 58.558C21.1439 58.9936 21.7592 59.5643 22.2466 60.2377C22.7341 60.9111 23.0841 61.6739 23.2767 62.4825C23.4696 63.292 23.5009 64.1315 23.3689 64.9531C23.237 65.7746 22.9443 66.5621 22.5077 67.2705C22.0711 67.9788 21.4991 68.5941 20.8245 69.0812C20.1498 69.5683 19.3857 69.9175 18.576 70.109Z" fill="#455A64"/>
<path d="M16.4552 61.1835C17.3564 60.9685 17.4648 60.9461 17.8312 60.8773C18.0456 60.8292 18.2666 60.8181 18.4848 60.8446C18.6444 60.8639 18.7978 60.9186 18.9337 61.0046C19.0708 61.0879 19.1882 61.2 19.2777 61.3331C19.3994 61.5161 19.489 61.7185 19.5426 61.9317C19.644 62.2843 19.6733 62.3909 19.8866 63.2922C20.0998 64.1935 20.1222 64.3018 20.191 64.6682C20.2401 64.8825 20.2511 65.1037 20.2237 65.3218C20.2061 65.4819 20.1513 65.6356 20.0637 65.7707C19.9816 65.9082 19.87 66.0257 19.7369 66.1147C19.5533 66.2364 19.3503 66.3259 19.1366 66.3796C18.7926 66.4811 18.6791 66.5103 17.7778 66.7236C16.8766 66.9369 16.7682 66.961 16.4018 67.0298C16.187 67.0787 15.9652 67.0898 15.7465 67.0624C15.5867 67.0437 15.4333 66.989 15.2976 66.9025C15.1618 66.8167 15.0477 66.7007 14.9639 66.5636C14.8411 66.381 14.7509 66.1785 14.6973 65.9651C14.5976 65.6125 14.5683 65.5076 14.3533 64.6063C14.1383 63.705 14.116 63.5966 14.0472 63.2303C13.9999 63.0152 13.9889 62.7937 14.0145 62.575C14.0356 62.4159 14.0901 62.2631 14.1742 62.1265C14.2584 61.9898 14.3704 61.8725 14.503 61.782C14.6857 61.6596 14.8882 61.5694 15.1015 61.5154C15.4455 61.4157 15.5608 61.3864 16.462 61.1714M16.3176 60.5626C15.4008 60.781 15.2856 60.812 14.9295 60.9152C14.6509 60.9843 14.3862 61.1007 14.1469 61.2592C13.9439 61.3996 13.7722 61.5806 13.6428 61.7908C13.5135 62.001 13.4292 62.2359 13.3953 62.4804C13.3592 62.7671 13.3719 63.0579 13.4331 63.3404C13.5036 63.7033 13.526 63.8202 13.7444 64.737C13.9629 65.6538 13.9938 65.769 14.0884 66.1233C14.1572 66.402 14.2736 66.6668 14.4324 66.9059C14.5724 67.1166 14.7575 67.2934 14.9742 67.4236C15.1828 67.5549 15.4177 67.6389 15.6622 67.6696C15.949 67.7059 16.2398 67.6931 16.5222 67.6318C16.8852 67.563 17.0021 67.5389 17.9189 67.3204C18.8356 67.102 18.9509 67.071 19.3052 66.9764C19.5834 66.9061 19.8479 66.7898 20.0878 66.6324C20.2929 66.4941 20.4655 66.3127 20.5935 66.101C20.7241 65.8919 20.8085 65.6573 20.8412 65.413C20.8768 65.1261 20.8634 64.8353 20.8016 64.553C20.7328 64.1883 20.7087 64.0731 20.4903 63.1563C20.2718 62.2396 20.2409 62.1243 20.1463 61.7683C20.0756 61.4902 19.9594 61.2258 19.8023 60.9857C19.6639 60.7811 19.4825 60.6091 19.2708 60.4817C19.0625 60.3495 18.8276 60.2649 18.5828 60.234C18.2961 60.1977 18.0052 60.2105 17.7228 60.2719C17.3582 60.3424 17.2429 60.3648 16.3262 60.5832" fill="white"/>
<path d="M16.7012 62.2176C16.3584 62.2993 16.0475 62.4808 15.8078 62.7392C15.5681 62.9975 15.4105 63.3211 15.3547 63.6691C15.299 64.0171 15.3476 64.3738 15.4946 64.6941C15.6415 65.0144 15.8802 65.2839 16.1803 65.4686C16.4804 65.6533 16.8286 65.7448 17.1807 65.7317C17.5329 65.7185 17.8732 65.6012 18.1588 65.3947C18.4443 65.1881 18.6621 64.9015 18.7847 64.5711C18.9074 64.2407 18.9293 63.8814 18.8477 63.5386C18.7379 63.079 18.4502 62.6817 18.0477 62.434C17.6453 62.1864 17.161 62.1085 16.7012 62.2176ZM17.3892 65.078C17.1665 65.1306 16.9331 65.116 16.7187 65.036C16.5043 64.9561 16.3184 64.8144 16.1845 64.6288C16.0506 64.4432 15.9747 64.2221 15.9663 63.9934C15.958 63.7647 16.0177 63.5387 16.1378 63.3439C16.2579 63.1491 16.433 62.9943 16.6411 62.899C16.8491 62.8037 17.0808 62.7722 17.3067 62.8085C17.5327 62.8448 17.7428 62.9472 17.9105 63.1029C18.0783 63.2586 18.1961 63.4604 18.2492 63.6831C18.2845 63.8311 18.2902 63.9847 18.2661 64.135C18.2419 64.2853 18.1884 64.4293 18.1085 64.5589C18.0286 64.6885 17.924 64.801 17.8005 64.8901C17.6771 64.9791 17.5373 65.043 17.3892 65.078Z" fill="white"/>
<path d="M18.8924 61.6242C18.9112 61.7042 18.9058 61.7881 18.877 61.8651C18.8482 61.9421 18.7973 62.0089 18.7305 62.057C18.6638 62.1051 18.5844 62.1323 18.5022 62.1353C18.42 62.1383 18.3388 62.1168 18.2687 62.0737C18.1987 62.0305 18.1431 61.9676 18.1088 61.8928C18.0745 61.8181 18.0632 61.7348 18.0761 61.6536C18.0891 61.5724 18.1259 61.4968 18.1818 61.4365C18.2377 61.3762 18.3102 61.3337 18.3901 61.3146C18.4435 61.3015 18.4988 61.2992 18.553 61.3078C18.6073 61.3164 18.6592 61.3356 18.706 61.3644C18.7527 61.3932 18.7932 61.431 18.8252 61.4756C18.8572 61.5202 18.88 61.5707 18.8924 61.6242Z" fill="white"/>
<path d="M66.5312 64.5378C66.1435 64.538 65.7595 64.4619 65.4012 64.3136C65.0429 64.1654 64.7173 63.948 64.4431 63.6739C64.1688 63.3998 63.9513 63.0744 63.8028 62.7162C63.6544 62.358 63.578 61.974 63.578 61.5863C63.578 61.1985 63.6544 60.8146 63.8028 60.4564C63.9513 60.0982 64.1688 59.7727 64.4431 59.4986C64.7173 59.2245 65.0429 59.0072 65.4012 58.859C65.7595 58.7107 66.1435 58.6345 66.5312 58.6348C66.9193 58.6341 67.3036 58.7099 67.6623 58.858C68.021 59.006 68.347 59.2233 68.6216 59.4974C68.8962 59.7716 69.1141 60.0972 69.2628 60.4556C69.4114 60.814 69.4879 61.1983 69.4879 61.5863C69.4879 61.9743 69.4114 62.3586 69.2628 62.717C69.1141 63.0754 68.8962 63.401 68.6216 63.6752C68.347 63.9493 68.021 64.1666 67.6623 64.3146C67.3036 64.4626 66.9193 64.5385 66.5312 64.5378Z" fill="#455A64"/>
<path d="M66.0807 63.37H66.7996V61.576H67.3001L67.3552 60.974H66.7996V60.63C66.7996 60.489 66.8289 60.4322 66.9716 60.4322H67.3621V59.8062H66.8633C66.3283 59.8062 66.0875 60.0418 66.0875 60.4942V60.9758H65.704V61.576H66.0772L66.0807 63.37Z" fill="white"/>
<path d="M56.4624 80.8485L32.7453 80.84C31.3768 80.84 30.0643 80.2963 29.0967 79.3286C28.129 78.3609 27.5853 77.0485 27.5853 75.68L27.5956 16.223C27.5956 15.5445 27.7295 14.8727 27.9894 14.246C28.2494 13.6193 28.6304 13.05 29.1106 12.5707C29.5909 12.0914 30.1609 11.7115 30.7882 11.4528C31.4154 11.1941 32.0875 11.0616 32.766 11.063L56.4813 11.0768C57.8498 11.0768 59.1623 11.6204 60.13 12.5881C61.0977 13.5558 61.6413 14.8682 61.6413 16.2368L61.631 75.68C61.6321 76.359 61.4992 77.0316 61.2399 77.6592C60.9805 78.2868 60.5999 78.8571 60.1197 79.3372C59.6395 79.8174 59.0693 80.1981 58.4417 80.4574C57.8141 80.7168 57.1415 80.8497 56.4624 80.8485Z" fill="#263238"/>
<path d="M56.4555 13.1615H51.8562C51.5544 13.1687 51.2676 13.295 51.0585 13.5128C50.8494 13.7306 50.7349 14.0223 50.7399 14.3242V15.1584C50.7434 15.3083 50.7172 15.4574 50.6629 15.5972C50.6086 15.737 50.5273 15.8647 50.4237 15.973C50.32 16.0813 50.1959 16.1681 50.0587 16.2284C49.9214 16.2888 49.7736 16.3214 49.6237 16.3245H40.6607C40.5107 16.3212 40.3629 16.2883 40.2256 16.2278C40.0883 16.1673 39.9643 16.0803 39.8606 15.9719C39.757 15.8634 39.6757 15.7356 39.6214 15.5957C39.5672 15.4559 39.541 15.3067 39.5445 15.1567V14.3173C39.5505 14.0146 39.4364 13.7219 39.2273 13.5031C39.0181 13.2842 38.7308 13.1571 38.4282 13.1494H36.8079H32.7849C32.3098 13.1483 31.8392 13.2409 31.4 13.4219C30.9607 13.6029 30.5615 13.8688 30.2252 14.2043C29.8889 14.5398 29.6221 14.9384 29.44 15.3772C29.258 15.816 29.1643 16.2864 29.1643 16.7614L29.1522 74.7959C29.1522 75.7539 29.5328 76.6726 30.2102 77.35C30.8875 78.0274 31.8063 78.4079 32.7642 78.4079L56.4349 78.4217C56.9092 78.4217 57.3789 78.3283 57.8171 78.1468C58.2553 77.9652 58.6535 77.6992 58.9889 77.3638C59.3243 77.0284 59.5904 76.6302 59.7719 76.192C59.9534 75.7537 60.0469 75.284 60.0469 74.8097L60.0589 16.7735C60.0589 15.817 59.6795 14.8996 59.004 14.2224C58.3285 13.5453 57.412 13.1637 56.4555 13.1615Z" fill="white"/>
<path d="M56.8013 17.8758C56.8013 17.8913 56.2027 17.9085 55.4666 17.9137C54.7304 17.9188 54.1301 17.9137 54.1301 17.8982C54.1301 17.8827 54.727 17.8638 55.4648 17.8586C56.2027 17.8535 56.8013 17.8603 56.8013 17.8758Z" fill="#263238"/>
<path d="M56.8064 18.5587C56.8064 18.5741 56.2096 18.5913 55.4717 18.5982C54.7338 18.6051 54.1353 18.5982 54.1353 18.581C54.1353 18.5638 54.7338 18.5483 55.4717 18.5415C56.2096 18.5346 56.8064 18.5432 56.8064 18.5587Z" fill="#263238"/>
<path d="M56.8133 19.2418C56.8133 19.2572 56.2147 19.2762 55.4768 19.2813C54.7389 19.2865 54.1421 19.2813 54.1404 19.2641C54.1387 19.2469 54.7389 19.2314 55.4768 19.2246C56.2147 19.2177 56.8133 19.2263 56.8133 19.2418Z" fill="#263238"/>
<path d="M31.648 19.909H31.7185H31.9128L32.6318 19.8918L32.6112 19.9107C32.6112 19.7524 32.6112 19.5787 32.6026 19.3947C32.6026 19.2984 32.6026 19.2072 32.6026 19.0954C32.6139 19.0376 32.6434 18.985 32.6867 18.9451C32.73 18.9052 32.7849 18.8801 32.8434 18.8735C32.9603 18.8735 33.0618 18.8735 33.1874 18.8735C33.2531 18.8842 33.313 18.9179 33.3562 18.9686C33.3993 19.0193 33.423 19.0838 33.423 19.1504C33.423 19.3947 33.423 19.6475 33.4316 19.9107L33.3989 19.878H34.3054L34.271 19.9124C34.271 19.5478 34.271 19.1694 34.2606 18.7824C34.2606 18.686 34.2606 18.5914 34.2606 18.4951C34.2567 18.4523 34.2433 18.4109 34.2213 18.374C34.1992 18.3371 34.1692 18.3056 34.1334 18.2818L33.7378 17.8897L33.3542 17.513L33.1702 17.3307C33.1065 17.2688 33.0566 17.2051 32.9827 17.1896C32.9472 17.1803 32.9102 17.179 32.8741 17.1859C32.8381 17.1927 32.8041 17.2075 32.7746 17.2292C32.7195 17.2756 32.661 17.341 32.6026 17.4012L32.2758 17.7297C32.0711 17.9413 31.8578 18.1356 31.703 18.3197C31.6571 18.4281 31.6416 18.5471 31.6583 18.6637C31.6583 18.7755 31.6583 18.8821 31.6583 18.9819C31.6583 19.178 31.6583 19.35 31.6583 19.4979C31.6583 19.6458 31.6583 19.737 31.6583 19.8264C31.6608 19.8659 31.6608 19.9056 31.6583 19.9451C31.6563 19.909 31.6563 19.8728 31.6583 19.8367C31.6583 19.749 31.6583 19.6406 31.6583 19.5116C31.6583 19.3826 31.6583 19.19 31.6462 18.9956C31.6462 18.8924 31.6462 18.7841 31.6462 18.6688C31.6462 18.6104 31.6462 18.5519 31.6462 18.4968C31.6458 18.4305 31.663 18.3652 31.6961 18.3076C31.8681 18.103 32.0642 17.9206 32.2706 17.7022L32.594 17.3702C32.6524 17.3135 32.6989 17.2567 32.766 17.1982C32.803 17.1701 32.8459 17.1506 32.8914 17.1414C32.937 17.1322 32.9841 17.1334 33.0291 17.1449C33.1148 17.1764 33.1903 17.2305 33.2476 17.3014L33.4333 17.4838L33.8169 17.8604L34.2142 18.2492C34.2514 18.2826 34.2854 18.3194 34.3157 18.3592C34.3455 18.4049 34.3621 18.4578 34.3638 18.5123C34.3638 18.6086 34.3638 18.705 34.3638 18.8013C34.3638 19.1883 34.3638 19.5667 34.3724 19.9313V19.9657H34.338H33.4316H33.368V19.933C33.368 19.6699 33.368 19.417 33.368 19.1728C33.3691 19.1203 33.3513 19.0692 33.3178 19.0288C33.2843 18.9883 33.2374 18.9613 33.1856 18.9526C33.0807 18.9526 32.9569 18.9526 32.8554 18.9526C32.8091 18.9573 32.7653 18.9764 32.7305 19.0073C32.6956 19.0381 32.6713 19.0792 32.661 19.1246C32.661 19.2158 32.661 19.3207 32.661 19.4136C32.661 19.6011 32.661 19.7765 32.661 19.9296V19.9502H32.6404H31.9094H31.7185C31.6936 19.939 31.67 19.9251 31.648 19.909Z" fill="#263238"/>
<path d="M47.2999 65.2586C47.2174 65.2716 47.134 65.2773 47.0505 65.2758L46.3728 65.2895C45.8018 65.2981 45.0106 65.3033 44.1368 65.3033C43.2631 65.3033 42.4719 65.3033 41.9008 65.2895L41.2232 65.2758C41.1397 65.2772 41.0562 65.2714 40.9738 65.2586C41.0561 65.2446 41.1397 65.2389 41.2232 65.2414L41.9008 65.2259C42.4719 65.2259 43.2631 65.2139 44.1368 65.2139C45.0106 65.2139 45.8001 65.2139 46.3728 65.2259L47.0505 65.2414C47.134 65.2388 47.2176 65.2445 47.2999 65.2586Z" fill="#455A64"/>
<path d="M57.2364 66.8133C57.2364 66.8391 53.5951 66.858 49.1042 66.858C44.6133 66.858 40.972 66.8391 40.972 66.8133C40.972 66.7875 44.6133 66.7686 49.1042 66.7686C53.5951 66.7686 57.2364 66.7892 57.2364 66.8133Z" fill="#455A64"/>
<path d="M52.1538 68.284C52.1538 68.3098 49.6512 68.3287 46.5638 68.3287C43.4764 68.3287 40.972 68.3098 40.972 68.284C40.972 68.2582 43.4746 68.2393 46.5638 68.2393C49.6529 68.2393 52.1538 68.253 52.1538 68.284Z" fill="#455A64"/>
<path d="M57.5581 71.1272L57.0524 70.6197L56.5708 71.0996V69.6479H57.5564L57.5581 71.1272ZM57.0524 70.5561L57.0679 70.5716L57.5134 71.0188V69.6944H56.6172V70.993L57.0524 70.5561Z" fill="#263238"/>
<path d="M44.1025 70.9378L43.9305 70.8587C43.8278 70.907 43.7108 70.9153 43.6023 70.8819C43.4938 70.8485 43.4017 70.7758 43.344 70.6781C43.2863 70.5804 43.2671 70.4646 43.2902 70.3535C43.3133 70.2424 43.377 70.1439 43.4689 70.0773C43.5608 70.0106 43.6742 69.9807 43.787 69.9933C43.8998 70.0059 44.0039 70.0601 44.0788 70.1454C44.1537 70.2306 44.1941 70.3407 44.1922 70.4542C44.1902 70.5677 44.1459 70.6764 44.0681 70.759L44.1025 70.9378ZM43.688 69.9712C43.5704 69.9794 43.4603 70.0322 43.3803 70.1187C43.3003 70.2053 43.2564 70.3192 43.2575 70.4371C43.2586 70.5549 43.3046 70.668 43.3862 70.753C43.4678 70.8381 43.5788 70.8888 43.6966 70.8948C43.7751 70.8894 43.8512 70.8652 43.9184 70.8243L44.0509 70.8828L44.0199 70.7538C44.0806 70.6876 44.1206 70.6051 44.135 70.5165C44.1494 70.4278 44.1376 70.3369 44.1011 70.2549C44.0645 70.1729 44.0048 70.1033 43.9293 70.0547C43.8538 70.0062 43.7657 69.9807 43.6759 69.9815L43.688 69.9712Z" fill="#263238"/>
<path d="M45.248 70.8638L45.0451 70.365L44.6615 70.021H45.5903L45.248 70.8638ZM44.7475 70.0502L45.0743 70.3495L45.2463 70.7744L45.5387 70.0434L44.7475 70.0502Z" fill="#263238"/>
<path d="M45.5708 70.0101L45.0634 70.3403L45.0821 70.3692L45.5896 70.039L45.5708 70.0101Z" fill="#263238"/>
<path d="M42.6388 70.1177C42.6251 70.0513 42.5884 69.9919 42.5351 69.95C42.4819 69.9081 42.4156 69.8863 42.3478 69.8886C42.2801 69.8909 42.2154 69.917 42.1651 69.9624C42.1148 70.0077 42.0821 70.0694 42.0729 70.1366C42.0636 70.0686 42.0303 70.0063 41.9791 69.9607C41.9279 69.9152 41.862 69.8895 41.7935 69.8882C41.725 69.887 41.6582 69.9103 41.6054 69.9539C41.5525 69.9976 41.517 70.0587 41.5053 70.1262C41.492 70.2253 41.5173 70.3256 41.5758 70.4066C41.6339 70.4862 41.7021 70.5579 41.7788 70.6199C41.8837 70.711 41.9783 70.7919 42.0815 70.8882C42.1847 70.7953 42.2707 70.7076 42.3739 70.6147C42.4495 70.5515 42.5166 70.4786 42.5734 70.398C42.6309 70.3167 42.6544 70.2161 42.6388 70.1177Z" fill="#167D85"/>
<path d="M58.5935 72.4121C58.5935 72.4121 58.5935 72.3553 58.5935 72.2504C58.5935 72.1455 58.5935 71.9855 58.5935 71.7791C58.5935 71.3646 58.5935 70.7471 58.5849 69.9628C58.5849 68.3821 58.5763 66.0825 58.5694 63.198L58.5986 63.2273L31.0941 63.2428L31.1388 63.198C31.1388 66.4007 31.1388 69.5053 31.1388 72.4121L31.0958 72.3691L50.7778 72.388L56.5226 72.4H58.0706H58.4696H58.6072H58.4748H58.0809H56.5484L50.8122 72.4121L31.101 72.4327H31.0563V72.4121C31.0563 69.5053 31.0563 66.4007 31.0563 63.198V63.1533H31.1044L58.609 63.1688H58.6382V63.198C58.6382 66.0894 58.6262 68.3959 58.6227 69.9817C58.6227 70.7695 58.6227 71.3766 58.6227 71.7912C58.6227 71.9941 58.6227 72.1489 58.6227 72.2556C58.6227 72.3622 58.5935 72.4121 58.5935 72.4121Z" fill="#263238"/>
<path d="M32.2331 64.7384L32.198 70.8306L39.8175 70.8745L39.8526 64.7823L32.2331 64.7384Z" fill="#EBEBEB"/>
<path d="M39.8506 64.7784H39.7044H39.2882H37.7247L32.2207 64.7664L32.262 64.7269C32.2534 66.5415 32.243 68.6192 32.2327 70.8174C32.2413 70.8294 32.1484 70.7331 32.188 70.7726H32.7126H33.2286H34.2606L36.2386 70.7847L39.8059 70.8105L39.7698 70.8483C39.787 69.0182 39.8024 67.5012 39.8145 66.4348C39.8145 65.905 39.8265 65.4888 39.83 65.1981C39.83 65.0588 39.83 64.9504 39.83 64.8713C39.83 64.7922 39.83 64.7561 39.83 64.7561C39.83 64.7561 39.83 64.7905 39.83 64.8627C39.83 64.935 39.83 65.0468 39.83 65.1844C39.83 65.4716 39.83 65.8861 39.83 66.4124C39.83 67.484 39.83 69.0097 39.83 70.8483V70.8844H39.7921L36.2248 70.8707L34.2468 70.8604H33.2148H32.6988H32.1742L32.1278 70.8139C32.1433 68.614 32.1553 66.5363 32.1674 64.7234V64.6821H32.2086L37.7298 64.732L39.2778 64.7526H39.6855H39.7887L39.8506 64.7784Z" fill="#263238"/>
<path d="M32.494 65.1237L32.4634 70.4487L39.5479 70.4895L39.5786 65.1645L32.494 65.1237Z" fill="#E0E0E0"/>
<path d="M32.4598 70.4444L34.9538 67.1489L36.4743 69.2284L37.5201 68.1276L39.5445 70.4857L32.4598 70.4444Z" fill="#F5F5F5"/>
<path d="M37.14 66.7565C37.1396 66.8672 37.1065 66.9752 37.0447 67.067C36.9829 67.1588 36.8953 67.2301 36.7929 67.2721C36.6905 67.314 36.578 67.3246 36.4696 67.3026C36.3612 67.2806 36.2617 67.2268 36.1839 67.1482C36.106 67.0697 36.0532 66.9697 36.0322 66.8611C36.0111 66.7525 36.0228 66.6401 36.0657 66.5381C36.1086 66.4361 36.1808 66.3492 36.2731 66.2882C36.3654 66.2273 36.4738 66.1951 36.5844 66.1958C36.6577 66.196 36.7303 66.2107 36.7979 66.2391C36.8656 66.2674 36.927 66.3088 36.9786 66.3609C37.0302 66.413 37.071 66.4747 37.0987 66.5426C37.1264 66.6105 37.1404 66.6832 37.14 66.7565Z" fill="#F5F5F5"/>
<path d="M45.0794 25.2617C45.0521 25.2663 45.0242 25.2663 44.9968 25.2617L44.7646 25.2703L43.9046 25.2858C43.1805 25.2858 42.1846 25.2978 41.0735 25.2978C39.9624 25.2978 38.9665 25.2978 38.2424 25.2858L37.3824 25.2703L37.1485 25.2617C37.1217 25.2665 37.0944 25.2665 37.0676 25.2617C37.0941 25.2552 37.1213 25.2523 37.1485 25.2531H37.3824L38.2424 25.2393C38.9665 25.2307 39.9624 25.2256 41.0735 25.2256C42.1846 25.2256 43.1805 25.2256 43.9046 25.2393L44.7646 25.2531H44.9968C45.0246 25.2524 45.0524 25.2553 45.0794 25.2617Z" fill="#263238"/>
<path d="M56.3351 58.9357L55.5852 58.1823L54.8679 58.8961V56.7393H56.3334L56.3351 58.9357ZM55.5852 58.0895L55.6075 58.1118L56.2697 58.7757V56.8081H54.935V58.7379L55.5852 58.0895Z" fill="#263238"/>
<path d="M37.2672 58.7088L36.9232 58.5523C36.7228 58.6454 36.495 58.6605 36.2841 58.5946C36.0733 58.5287 35.8946 58.3865 35.783 58.1958C35.6714 58.0052 35.6349 57.7798 35.6806 57.5636C35.7264 57.3475 35.8511 57.1562 36.0304 57.0272C36.2098 56.8981 36.4307 56.8406 36.6502 56.8658C36.8697 56.891 37.0719 56.9972 37.2172 57.1635C37.3626 57.3299 37.4407 57.5445 37.4362 57.7654C37.4318 57.9862 37.3451 58.1975 37.1932 58.3579L37.2672 58.7088ZM36.4467 56.8082C36.3275 56.8092 36.2096 56.8337 36.0998 56.8803C35.99 56.9268 35.8904 56.9946 35.8068 57.0796C35.7232 57.1647 35.6572 57.2654 35.6125 57.3759C35.5678 57.4865 35.5453 57.6048 35.5463 57.7241C35.5473 57.8433 35.5718 57.9612 35.6184 58.071C35.665 58.1808 35.7327 58.2804 35.8178 58.364C35.9028 58.4476 36.0035 58.5136 36.1141 58.5583C36.2246 58.603 36.3429 58.6255 36.4622 58.6245C36.6169 58.6152 36.767 58.5679 36.8991 58.4869L36.9146 58.4783L37.1726 58.5935L37.1141 58.339L37.1261 58.3269C37.2456 58.1965 37.3243 58.034 37.3526 57.8595C37.3809 57.6849 37.3575 57.5058 37.2853 57.3444C37.213 57.183 37.0952 57.0462 36.9462 56.9509C36.7972 56.8556 36.6236 56.806 36.4467 56.8082Z" fill="#263238"/>
<path d="M39.5239 58.5589L39.1214 57.5768L38.368 56.8888L40.1981 56.875L39.5239 58.5589ZM38.5383 56.9541L39.1816 57.5441L39.5256 58.38L40.1001 56.9421L38.5383 56.9541Z" fill="#263238"/>
<path d="M40.1617 56.8724L39.1641 57.5215L39.2006 57.5777L40.1983 56.9286L40.1617 56.8724Z" fill="#263238"/>
<path d="M34.3879 57.1038C34.3619 56.9721 34.29 56.854 34.1849 56.7704C34.0799 56.6869 33.9486 56.6434 33.8144 56.6478C33.6803 56.6521 33.552 56.704 33.4526 56.7941C33.3532 56.8843 33.289 57.0069 33.2716 57.1399C33.2519 57.0074 33.1858 56.8862 33.085 56.7978C32.9843 56.7095 32.8555 56.6597 32.7215 56.6575C32.5875 56.6552 32.4571 56.7005 32.3534 56.7854C32.2497 56.8703 32.1796 56.9892 32.1553 57.121C32.1295 57.3156 32.1794 57.5126 32.2947 57.6714C32.4101 57.8281 32.5447 57.9697 32.6954 58.0928C32.9001 58.2648 33.0876 58.4368 33.2923 58.6209C33.4918 58.4385 33.6638 58.2665 33.865 58.0825C34.0137 57.9574 34.146 57.8141 34.2589 57.6559C34.3708 57.4951 34.417 57.2976 34.3879 57.1038Z" fill="#167D85"/>
<path d="M34.2211 26.5032C34.9069 26.5032 35.4629 25.9472 35.4629 25.2614C35.4629 24.5755 34.9069 24.0195 34.2211 24.0195C33.5352 24.0195 32.9792 24.5755 32.9792 25.2614C32.9792 25.9472 33.5352 26.5032 34.2211 26.5032Z" fill="#EBEBEB"/>
<path d="M55.8673 51.8147C55.8673 51.8405 50.6626 51.8612 44.2435 51.8612C37.8245 51.8612 32.618 51.8405 32.618 51.8147C32.618 51.7889 37.8228 51.77 44.2435 51.77C50.6643 51.77 55.8673 51.7907 55.8673 51.8147Z" fill="#455A64"/>
<path d="M55.8673 49.8802C55.8673 49.9043 50.6626 49.9249 44.2435 49.9249C37.8245 49.9249 32.618 49.9043 32.618 49.8802C32.618 49.8561 37.8228 49.8354 44.2435 49.8354C50.6643 49.8354 55.8673 49.8561 55.8673 49.8802Z" fill="#455A64"/>
<path d="M45.2721 53.7776C45.2721 53.8017 42.4392 53.8224 38.9459 53.8224C35.4526 53.8224 32.618 53.8017 32.618 53.7776C32.618 53.7536 35.4509 53.7329 38.9459 53.7329C42.441 53.7329 45.2721 53.7536 45.2721 53.7776Z" fill="#455A64"/>
<path d="M43.7121 74.8697C43.7104 74.9674 43.6798 75.0625 43.6242 75.1429C43.5686 75.2233 43.4904 75.2854 43.3996 75.3215C43.3087 75.3576 43.2093 75.3659 43.1136 75.3456C43.018 75.3252 42.9306 75.277 42.8623 75.2071C42.794 75.1372 42.748 75.0486 42.7299 74.9525C42.7119 74.8564 42.7227 74.7572 42.761 74.6672C42.7992 74.5773 42.8632 74.5006 42.9449 74.447C43.0267 74.3933 43.1224 74.3651 43.2202 74.3657C43.2856 74.3664 43.3502 74.38 43.4104 74.4057C43.4706 74.4314 43.5251 74.4688 43.5708 74.5156C43.6165 74.5624 43.6525 74.6178 43.6767 74.6785C43.701 74.7393 43.713 74.8043 43.7121 74.8697Z" fill="#263238"/>
<path d="M45.236 74.8765C45.2339 74.9738 45.2032 75.0682 45.1477 75.1481C45.0921 75.2279 45.0142 75.2896 44.9238 75.3253C44.8333 75.361 44.7343 75.3693 44.6392 75.3489C44.5441 75.3286 44.4571 75.2806 44.3892 75.211C44.3212 75.1414 44.2754 75.0533 44.2573 74.9577C44.2393 74.8621 44.2499 74.7634 44.2878 74.6738C44.3257 74.5842 44.3893 74.5078 44.4704 74.4543C44.5516 74.4007 44.6468 74.3722 44.744 74.3726C44.8095 74.373 44.8743 74.3864 44.9345 74.4121C44.9948 74.4377 45.0494 74.475 45.0951 74.5219C45.1409 74.5688 45.1769 74.6242 45.2011 74.6851C45.2252 74.746 45.2371 74.811 45.236 74.8765Z" fill="#263238"/>
<path d="M46.772 74.8834C46.7699 74.9806 46.7392 75.0751 46.6837 75.1549C46.6281 75.2348 46.5502 75.2964 46.4598 75.3322C46.3693 75.3679 46.2703 75.3761 46.1752 75.3558C46.0801 75.3354 45.9931 75.2874 45.9252 75.2178C45.8572 75.1482 45.8114 75.0601 45.7933 74.9645C45.7753 74.869 45.7859 74.7702 45.8238 74.6806C45.8617 74.5911 45.9253 74.5147 46.0064 74.4611C46.0876 74.4075 46.1828 74.3791 46.28 74.3794C46.3455 74.3801 46.4101 74.3937 46.4703 74.4194C46.5304 74.4451 46.5849 74.4824 46.6306 74.5292C46.6763 74.5761 46.7124 74.6314 46.7366 74.6922C46.7609 74.753 46.7729 74.8179 46.772 74.8834Z" fill="#263238"/>
<path d="M58.7586 27.7178H31.2506V44.5394H58.7586V27.7178Z" fill="#E0E0E0"/>
<path d="M33.7911 44.5446L41.6722 33.9941L46.5604 40.5921L49.8714 37.0626L56.3679 44.5377L33.7911 44.5446Z" fill="#F5F5F5"/>
<path d="M48.6313 32.6986C48.6316 33.0505 48.5276 33.3945 48.3324 33.6872C48.1372 33.9799 47.8596 34.2081 47.5346 34.343C47.2097 34.4778 46.852 34.5133 46.5069 34.4449C46.1618 34.3764 45.8448 34.2072 45.5959 33.9585C45.347 33.7099 45.1774 33.393 45.1086 33.048C45.0399 32.7029 45.075 32.3452 45.2096 32.0202C45.3441 31.6951 45.5721 31.4172 45.8646 31.2217C46.1571 31.0262 46.501 30.9219 46.8528 30.9219C47.3242 30.9219 47.7763 31.109 48.1098 31.4422C48.4433 31.7753 48.6308 32.2273 48.6313 32.6986Z" fill="#F5F5F5"/>
<path d="M58.6847 60.1742C58.6847 59.8147 58.6675 44.6185 58.6434 22.1209L58.6847 22.1622H31.1802L31.2249 22.1175C31.2249 36.3488 31.2249 49.5188 31.2249 60.1708L31.1871 60.1346L58.695 60.1708L31.1871 60.2086H31.1509V60.1708C31.1509 49.5188 31.1509 36.3488 31.1423 22.1175V22.0728H31.1905H58.695H58.7363V22.1123C58.7277 33.3732 58.7208 42.8899 58.7157 49.5945C58.7157 52.9416 58.7071 55.5852 58.7053 57.3947C58.7053 58.296 58.7053 58.9891 58.7053 59.4587C58.7053 59.6909 58.7053 59.868 58.7053 59.9884C58.7053 60.1088 58.6847 60.1742 58.6847 60.1742Z" fill="#263238"/>
<path d="M45.752 64.896L46.3609 62.8509C46.4675 62.4071 46.6085 61.8843 46.7977 61.2874C46.9697 60.7508 47.4066 60.1866 47.8057 59.7807C48.4266 59.1495 48.7224 59.146 49.1387 58.8106C49.1765 58.7865 49.2195 58.7504 49.2556 58.7315C49.3343 58.6886 49.4034 58.6301 49.4586 58.5595C49.8181 58.1708 49.4724 57.5671 48.7414 57.6255C48.1927 57.6685 47.2948 57.8251 45.8363 59.3301C45.8173 59.3541 45.7984 59.3731 45.7812 59.3954C45.0158 60.3913 44.2969 57.5499 44.1662 56.4921C44.1408 56.3281 44.0789 56.172 43.985 56.0352C43.8911 55.8985 43.7677 55.7846 43.6238 55.702C43.4799 55.6194 43.3193 55.5702 43.1539 55.5581C42.9884 55.546 42.8224 55.5713 42.668 55.6321L39.1145 57.2936C38.7756 57.1953 38.4141 57.2073 38.0825 57.328C37.8338 57.4153 37.6266 57.5921 37.5013 57.8239C37.376 58.0558 37.3416 58.326 37.4048 58.5819L38.8479 64.3284L34.615 78.4152H43.7396L45.752 64.896Z" fill="#FFBE9D"/>
<path d="M52.7695 51.958L49.9487 57.4861L48.5383 57.0939L41.4519 62.8611C41.1627 63.0977 40.7926 63.2122 40.4203 63.18C40.0479 63.1479 39.7029 62.9718 39.4585 62.6891L36.7581 59.5535C36.7581 59.5535 42.2019 57.2092 43.2081 55.269C44.2143 53.3288 43.0515 52.8868 43.0515 52.8868L45.6126 49.9766L52.7695 51.958Z" fill="#167D85"/>
<path d="M49.1111 40.6678C49.1111 40.6678 44.9831 39.7545 39.1713 34.168C33.3594 28.5814 30.6315 21.1562 29.928 21.1974C29.2245 21.2387 26.1113 19.7922 20.2048 32.6389C14.2983 45.4856 16.6255 48.4629 17.7968 48.4457C18.9681 48.4285 26.9507 46.1976 31.9352 46.7635C36.9198 47.3294 43.3268 49.9283 43.3268 49.9283L49.1111 40.6678Z" fill="#167D85"/>
<path d="M57.8814 47.6702L56.4727 50.3482L55.8415 51.5522C55.4248 52.3448 54.7199 52.9472 53.8722 53.2352C53.0244 53.5233 52.0984 53.4749 51.2852 53.1002L42.4358 50.0163L47.5958 38.2515L56.4366 42.9625C57.2499 43.3978 57.8582 44.1369 58.1289 45.0187C58.3995 45.9006 58.3106 46.8536 57.8814 47.6702Z" fill="#167D85"/>
<g opacity="0.4">
<path d="M57.8814 47.6702L56.4727 50.3482L55.8415 51.5522C55.4248 52.3448 54.7199 52.9472 53.8722 53.2352C53.0244 53.5233 52.0984 53.4749 51.2852 53.1002L42.4358 50.0163L47.5958 38.2515L56.4366 42.9625C57.2499 43.3978 57.8582 44.1369 58.1289 45.0187C58.3995 45.9006 58.3106 46.8536 57.8814 47.6702Z" fill="black"/>
</g>
<path d="M20.6761 32.873C17.5337 39.8321 16.2248 46.0344 17.7521 46.7241C19.2795 47.4138 23.0686 42.333 26.2111 35.3721C29.3535 28.4113 30.6624 22.2124 29.1351 21.521C27.6077 20.8295 23.8186 25.9138 20.6761 32.873Z" fill="#167D85"/>
<g opacity="0.5">
<path d="M20.6761 32.873C17.5337 39.8321 16.2248 46.0344 17.7521 46.7241C19.2795 47.4138 23.0686 42.333 26.2111 35.3721C29.3535 28.4113 30.6624 22.2124 29.1351 21.521C27.6077 20.8295 23.8186 25.9138 20.6761 32.873Z" fill="black"/>
</g>
<path d="M58.6417 51.54L56.2423 50.7866L57.7267 47.9658L59.5258 49.0838L58.6417 51.54Z" fill="#167D85"/>
<g opacity="0.6">
<path d="M57.7267 47.9658L56.2423 50.7866L56.7359 50.9414L57.9417 48.0983L57.7267 47.9658Z" fill="black"/>
</g>
<path d="M56.072 48.6158C56.0376 48.6932 54.8404 48.2288 53.3991 47.5838C51.9577 46.9388 50.8191 46.3402 50.8518 46.2628C50.8844 46.1854 52.0833 46.6515 53.5264 47.3034C54.9694 47.9553 56.1081 48.5384 56.072 48.6158Z" fill="#167D85"/>
<path d="M56.8115 46.9357C56.7737 47.0114 55.6901 46.5556 54.3915 45.9158C53.0929 45.2759 52.0712 44.6963 52.1091 44.6189C52.1469 44.5415 53.2288 44.999 54.5274 45.6388C55.826 46.2787 56.8494 46.8583 56.8115 46.9357Z" fill="#167D85"/>
<path d="M55.1432 50.3789C55.1312 50.4202 54.8456 50.3548 54.3916 50.2069C54.1645 50.1364 53.8945 50.0469 53.5969 49.9455C53.2994 49.844 52.9949 49.6823 52.6664 49.5327C51.354 48.9238 50.3513 48.3287 50.384 48.2564C50.4166 48.1842 51.4951 48.6503 52.792 49.254C53.1188 49.4019 53.4215 49.5636 53.707 49.6823C53.9925 49.801 54.2488 49.9059 54.4638 50.0022C54.8938 50.2 55.1552 50.3376 55.1432 50.3789Z" fill="#167D85"/>
<path d="M27.0831 31.3263C27.0831 31.3263 23.4951 29.1006 21.5326 33.9493C19.5701 38.798 23.3438 39.5943 23.3438 39.5943C24.9734 37.0282 26.2323 34.2447 27.0831 31.3263Z" fill="#167D85"/>
<g opacity="0.5">
<path d="M30.8998 25.5474C30.9221 25.5474 30.8705 25.881 30.7604 26.4744C30.6504 27.0678 30.4852 27.9261 30.2548 28.9822L29.756 30.6798C29.6654 30.9837 29.5719 31.2985 29.4756 31.6241L29.3294 32.1178C29.2761 32.2898 29.2056 32.4463 29.1436 32.6131L28.3335 34.7046C28.263 34.887 28.1908 35.0693 28.1202 35.2533C28.0497 35.4374 27.9482 35.6128 27.8674 35.7951L27.3342 36.8959L26.7993 37.995C26.7081 38.167 26.6273 38.3596 26.5292 38.5282C26.4312 38.6968 26.328 38.8722 26.23 39.0356L25.0862 40.9672C24.9933 41.1185 24.9142 41.275 24.811 41.4195L24.5134 41.8409L23.9424 42.6459L22.9104 44.0855C22.2224 44.9163 21.6479 45.5716 21.2523 46.0274C21.058 46.2742 20.8434 46.5043 20.6107 46.7154C20.7724 46.4469 20.9565 46.1926 21.1611 45.9552C21.543 45.4684 22.0813 44.7873 22.7418 43.9496L23.7308 42.4997L24.2846 41.693C24.381 41.5554 24.4773 41.4144 24.5753 41.2716C24.6734 41.1288 24.7473 40.9723 24.8419 40.8192L25.972 38.8894L26.2661 38.3837C26.3676 38.2117 26.4381 38.0397 26.5327 37.854L27.0624 36.7618C27.2344 36.392 27.4185 36.029 27.5939 35.6696C27.6765 35.4976 27.7762 35.3152 27.845 35.1329L28.06 34.5894L28.8822 32.5254C28.9458 32.3534 29.0181 32.2003 29.0731 32.0352C29.1282 31.8701 29.1746 31.7084 29.2245 31.5467L29.5169 30.6128L30.0449 28.9358L30.6418 26.459C30.7016 26.1483 30.7879 25.8433 30.8998 25.5474Z" fill="black"/>
</g>
<g opacity="0.4">
<path d="M37.6146 59.168C37.9431 59.7631 38.2768 60.372 38.7601 60.8415C39.2435 61.3111 39.9039 61.6448 40.5919 61.576C41.2799 61.5072 41.9077 60.9464 41.9146 60.2688C42.238 60.5113 42.7351 60.3806 43.0034 60.0761C43.2717 59.7717 43.3594 59.3503 43.3904 58.9461C43.8307 59.2058 44.443 59.0011 44.7371 58.5832C44.8722 58.3654 44.9576 58.1207 44.9873 57.8662C45.0171 57.6117 44.9904 57.3538 44.9091 57.1108C44.7415 56.6272 44.5033 56.1711 44.2022 55.7572C44.5462 55.7847 44.9005 55.8088 45.2033 55.6557C45.506 55.5026 45.7193 55.1002 45.5352 54.8112C45.4143 54.6499 45.2389 54.538 45.0416 54.4964C44.5101 54.3244 44.1386 54.1972 43.5847 54.2608C43.4575 54.2608 43.8066 55.7194 40.3374 57.7111C38.2785 58.8893 37.6146 59.168 37.6146 59.168Z" fill="black"/>
</g>
<path d="M45.4269 61.2668C45.4269 61.2823 45.1947 61.2376 44.8197 61.2479C44.3324 61.2595 43.8532 61.3745 43.4137 61.5854C42.9743 61.7962 42.5847 62.098 42.2707 62.4708C42.0281 62.7563 41.9267 62.9644 41.9043 62.9558C41.9186 62.9022 41.9412 62.8511 41.9714 62.8045C42.045 62.6734 42.1284 62.5481 42.2208 62.4295C42.53 62.0371 42.925 61.7208 43.3756 61.5049C43.8261 61.2891 44.3201 61.1793 44.8197 61.1842C44.9697 61.1852 45.1193 61.199 45.2669 61.2255C45.3222 61.2297 45.3764 61.2437 45.4269 61.2668Z" fill="#EB996E"/>
<path d="M37.84 58.2378C38.399 58.7745 38.7808 59.3679 39.3673 59.9079C39.6339 60.1539 40.0553 60.6183 40.3993 60.6802C40.7433 60.7421 40.9841 60.6957 41.1252 60.362C41.2404 60.092 41.034 59.7222 40.893 59.502C40.5197 58.9155 40.162 58.458 39.8833 58.0022C39.7509 57.7889 39.9212 57.7442 39.9831 57.8439C40.2514 58.1226 40.6539 58.3599 40.8947 58.6678C41.2249 59.0823 41.2834 59.6345 42.1468 59.459C42.2623 59.4403 42.3719 59.395 42.4668 59.3266C42.7918 59.0772 42.8108 58.6386 42.6697 58.2946C42.5479 58.0291 42.3854 57.7842 42.1881 57.5687C42.5562 57.9833 42.957 58.4288 43.5418 58.4666C43.707 58.4866 43.8743 58.4548 44.0206 58.3756C44.167 58.2965 44.2851 58.1738 44.3588 58.0245C44.5308 57.6324 44.2848 57.2523 44.0354 56.9461C43.5939 56.4017 43.1028 55.8996 42.5682 55.4463C42.3686 55.2786 42.1169 55.1855 41.8562 55.1831C41.5534 55.1831 41.1682 55.2382 40.9962 55.4996C40.8979 55.6257 40.8264 55.7705 40.7858 55.9251C40.7453 56.0798 40.7367 56.2411 40.7605 56.3991C40.7605 56.3991 40.0037 56.0156 39.3948 56.4163C39.0201 56.6796 38.7507 57.0672 38.6346 57.5103L37.84 58.2378Z" fill="#FFBE9D"/>
<path d="M41.8733 55.0179C41.7523 54.8774 41.6772 54.7032 41.6581 54.5187C41.6391 54.3342 41.6769 54.1483 41.7667 53.9859C41.8957 53.7331 42.0574 53.4871 42.2225 53.4321C42.9432 53.1896 46.0942 53.7348 46.065 54.4331C46.0357 55.1315 45.8052 55.4651 44.0973 55.2192C43.7963 55.1762 43.325 55.1177 43.325 55.1177L42.9122 55.7369L41.8733 55.0179Z" fill="#FFBE9D"/>
<path d="M42.4375 57.9454C42.024 57.2635 41.421 56.7167 40.702 56.3716C40.8193 56.3905 40.9323 56.4301 41.0357 56.4885C41.5534 56.7389 41.9881 57.133 42.2879 57.6237C42.3573 57.7207 42.408 57.8298 42.4375 57.9454Z" fill="#EB996E"/>
<path d="M42.9672 55.7968C42.9518 55.8106 42.7436 55.642 42.4598 55.4683C42.3411 55.3931 42.2183 55.3248 42.0918 55.2636C41.9937 55.2189 41.9284 55.2069 41.9301 55.1931C41.9318 55.1793 42.004 55.1724 42.1124 55.2051C42.2519 55.25 42.3849 55.313 42.508 55.3926C42.7987 55.5698 42.9896 55.7779 42.9672 55.7968Z" fill="#EB996E"/>
<path d="M43.4971 55.147C43.2921 55.1709 43.0844 55.1473 42.89 55.0782C42.7477 55.0347 42.6156 54.9634 42.5012 54.8683C42.4152 54.7944 42.3791 54.7342 42.3877 54.7256C42.5532 54.8326 42.7303 54.9203 42.9157 54.987C43.1129 55.0274 43.3071 55.0808 43.4971 55.147Z" fill="#EB996E"/>
<path d="M40.4355 58.8104C40.3268 58.6965 40.2306 58.5714 40.1482 58.4372C39.9518 58.1195 39.7036 57.8369 39.4138 57.6013C39.1134 57.3815 38.7412 57.2833 38.3715 57.3261C38.2198 57.3532 38.0724 57.4001 37.9329 57.4654C37.9329 57.4654 37.9638 57.4293 38.0343 57.3863C38.1348 57.3254 38.2455 57.2834 38.3611 57.2624C38.5537 57.2313 38.7505 57.2389 38.9401 57.2847C39.1297 57.3304 39.3082 57.4135 39.4654 57.529C39.7647 57.7696 40.0146 58.0657 40.2015 58.4011C40.2909 58.5307 40.3691 58.6677 40.4355 58.8104Z" fill="#EB996E"/>
<path d="M42.8452 65.7764C42.4209 65.8666 41.9911 65.9281 41.5586 65.9604C41.1285 66.0227 40.6946 66.0549 40.26 66.0567C40.6848 65.9666 41.1152 65.9051 41.5483 65.8727C41.9779 65.8114 42.4112 65.7792 42.8452 65.7764Z" fill="#EB996E"/>
<path d="M69.9404 8.57227L70.1348 8.92831L70.4891 9.12267L70.1348 9.31703L69.9404 9.67135L69.746 9.31703L69.3917 9.12267L69.746 8.92831L69.9404 8.57227Z" fill="#167D85"/>
<path d="M74.0013 17.3735L74.1957 17.7296L74.55 17.9239L74.1957 18.1183L74.0013 18.4726L73.807 18.1183L73.4509 17.9239L73.807 17.7296L74.0013 17.3735Z" fill="#167D85"/>
<path d="M8.92685 40.855L9.12121 41.211L9.47725 41.4054L9.12121 41.598L8.92685 41.9541L8.73249 41.598L8.37817 41.4054L8.73249 41.211L8.92685 40.855Z" fill="#167D85"/>
<path d="M64.6136 10.7603L65.0625 11.5807L65.8829 12.0296L65.0625 12.4768L64.6136 13.2973L64.1664 12.4768L63.3459 12.0296L64.1664 11.5807L64.6136 10.7603Z" fill="#167D85"/>
<path d="M12.5663 35.2769L13.0135 36.0939L13.8323 36.5411L13.0135 36.99L12.5663 37.807L12.1191 36.99L11.3004 36.5411L12.1191 36.0939L12.5663 35.2769Z" fill="#167D85"/>
<path d="M75.1055 54.792L75.5527 55.6107L76.3697 56.0579L75.5527 56.5051L75.1055 57.3238L74.6583 56.5051L73.8396 56.0579L74.6583 55.6107L75.1055 54.792Z" fill="#167D85"/>
</svg>
