<svg width="182" height="176" viewBox="0 0 182 176" fill="none" xmlns="http://www.w3.org/2000/svg">
<path d="M0.862061 78.3333C0.862061 35.6233 35.4854 1 78.1954 1H181.307V97.6667C181.307 140.377 146.683 175 103.973 175H0.862061V78.3333Z" fill="#1A998E"/>
<g opacity="0.1">
<path fill-rule="evenodd" clip-rule="evenodd" d="M0.862061 174.837L180.838 1H181.307V97.6667C181.307 140.377 146.683 175 103.973 175H0.862061V174.837Z" fill="black"/>
<path d="M0.862061 174.837L0.635687 174.602L0.536218 174.698V174.837H0.862061ZM180.838 1V0.674157H180.706L180.611 0.765632L180.838 1ZM181.307 1H181.632V0.674157H181.307V1ZM0.862061 175H0.536218V175.326H0.862061V175ZM1.08843 175.071L181.064 1.23437L180.611 0.765632L0.635687 174.602L1.08843 175.071ZM180.838 1.32584H181.307V0.674157H180.838V1.32584ZM180.981 1V97.6667H181.632V1H180.981ZM180.981 97.6667C180.981 140.197 146.503 174.674 103.973 174.674V175.326C146.863 175.326 181.632 140.557 181.632 97.6667H180.981ZM103.973 174.674H0.862061V175.326H103.973V174.674ZM1.1879 175V174.837H0.536218V175H1.1879Z" fill="black"/>
</g>
<path fill-rule="evenodd" clip-rule="evenodd" d="M101.903 47.3999H78.9756V76.5363H49.8397V99.4634H78.9756V128.6H101.903V99.4634H131.04V76.5363H101.903V47.3999Z" fill="white"/>
</svg>
