<?xml version="1.0" encoding="UTF-8" standalone="no"?>
<svg
   width="512"
   height="512"
   viewBox="0 0 512 512"
   fill="none"
   version="1.1"
   id="svg4"
   sodipodi:docname="Logo.svg"
   inkscape:export-filename="Logo-white.png"
   inkscape:export-xdpi="96"
   inkscape:export-ydpi="96"
   inkscape:version="1.4.2 (ebf0e940d0, 2025-05-08)"
   xmlns:inkscape="http://www.inkscape.org/namespaces/inkscape"
   xmlns:sodipodi="http://sodipodi.sourceforge.net/DTD/sodipodi-0.dtd"
   xmlns="http://www.w3.org/2000/svg"
   xmlns:svg="http://www.w3.org/2000/svg">
  <defs
     id="defs4" />
  <sodipodi:namedview
     id="namedview4"
     pagecolor="#ffffff"
     bordercolor="#000000"
     borderopacity="0.25"
     inkscape:showpageshadow="2"
     inkscape:pageopacity="0.0"
     inkscape:pagecheckerboard="0"
     inkscape:deskcolor="#d1d1d1"
     inkscape:zoom="1.203125"
     inkscape:cx="256"
     inkscape:cy="256"
     inkscape:window-width="1536"
     inkscape:window-height="827"
     inkscape:window-x="0"
     inkscape:window-y="0"
     inkscape:window-maximized="1"
     inkscape:current-layer="svg4" />
  <path
     d="M40 114C40 86.3858 62.3858 64 90 64H101C128.614 64 151 86.3858 151 114V150C151 177.614 128.614 200 101 200H90C62.3858 200 40 177.614 40 150V114Z"
     fill="#167D85"
     id="path1"
     style="fill:#ffffff" />
  <path
     d="M360.123 369.69C360.123 365.272 363.705 361.69 368.123 361.69H455.433C464.27 361.69 471.433 368.853 471.433 377.69V465C471.433 469.418 467.851 473 463.433 473H376.123C367.286 473 360.123 465.837 360.123 457V369.69Z"
     fill="#167D85"
     id="path2"
     style="fill:#ffffff" />
  <path
     d="M155.172 362.228C159.18 336.308 176.834 317.847 205.195 314.607C229.433 311.839 254.093 312.945 278.539 311.771C306.314 310.438 334.46 310.866 361.732 306.281C416.125 297.136 471.238 246.928 471.238 170.99C471.238 139.026 470.959 105.5 470.918 72C470.913 67.5817 467.331 64 462.913 64C432.701 64 403.037 64 372.326 64C363.721 64 356.743 70.9762 356.744 79.5819C356.747 107.073 356.836 134.564 356.732 162.054C356.603 195.973 338.242 218.927 304.472 222.534C276.855 225.484 248.774 223.77 220.974 225.398C193.696 226.996 165.645 226.765 139.459 233.385C76.5318 249.295 40.0022 299.742 40.0015 364.625C40.0011 397.878 40.0012 431.132 40.0013 465C40.0013 469.418 43.5834 473 48.0017 473C78.2226 473 107.926 473 138.239 473C147.076 473 154.24 465.837 154.24 457C154.239 441.258 154.234 425.417 154.217 408.275C154.201 391.459 154.217 377.221 155.172 362.228Z"
     fill="#167D85"
     id="path3"
     style="fill:#ffffff" />
  <path
     d="M40 127H151V150C151 177.614 128.614 200 101 200H90C62.3858 200 40 177.614 40 150V127Z"
     fill="#084347"
     id="path4"
     style="fill:#ffffff" />
</svg>
