<svg width="346" height="303" viewBox="0 0 346 303" fill="none" xmlns="http://www.w3.org/2000/svg">
<path d="M164 79C164 51.3858 186.386 29 214 29H216V232C216 259.614 193.614 282 166 282H164V79Z" fill="url(#paint0_linear_2023_252)"/>
<g filter="url(#filter0_d_2023_252)">
<rect x="219" y="134" width="30" height="55" transform="rotate(90 219 134)" fill="#D9D9D9"/>
</g>
<path d="M271.493 29C308.793 29.0002 339.03 59.2381 339.03 96.5381C339.03 133.838 308.793 164.075 271.493 164.075H6C6.00019 146.068 20.5977 131.471 38.6045 131.471H271.493V131.463C271.687 131.466 271.881 131.471 272.075 131.471C291.69 131.471 307.591 115.57 307.591 95.9551C307.591 76.3406 291.69 60.4405 272.075 60.4404C271.881 60.4404 271.687 60.4442 271.493 60.4473V60.4404H258.685C241.321 60.4404 227.244 46.3638 227.244 29H271.493Z" fill="#1DB8AD"/>
<path d="M271.493 29C308.793 29.0002 339.03 59.2381 339.03 96.5381C339.03 133.838 308.793 164.075 271.493 164.075H6C6.00019 146.068 20.5977 131.471 38.6045 131.471H271.493V131.463C271.687 131.466 271.881 131.471 272.075 131.471C291.69 131.471 307.591 115.57 307.591 95.9551C307.591 76.3406 291.69 60.4405 272.075 60.4404C271.881 60.4404 271.687 60.4442 271.493 60.4473V60.4404H258.685C241.321 60.4404 227.244 46.3638 227.244 29H271.493Z" fill="url(#paint1_linear_2023_252)"/>
<path d="M271.493 29C308.793 29.0002 339.03 59.2381 339.03 96.5381C339.03 133.838 308.793 164.075 271.493 164.075H6C6.00019 146.068 20.5977 131.471 38.6045 131.471H271.493V131.463C271.687 131.466 271.881 131.471 272.075 131.471C291.69 131.471 307.591 115.57 307.591 95.9551C307.591 76.3406 291.69 60.4405 272.075 60.4404C271.881 60.4404 271.687 60.4442 271.493 60.4473V60.4404H258.685C241.321 60.4404 227.244 46.3638 227.244 29H271.493Z" fill="black" fill-opacity="0.16"/>
<g filter="url(#filter1_d_2023_252)">
<rect x="84" y="132" width="30" height="32" fill="#D9D9D9"/>
</g>
<path d="M63 88C63 60.3858 85.3858 38 113 38H114V241C114 268.614 91.6142 291 64 291H63V88Z" fill="url(#paint2_linear_2023_252)"/>
<defs>
<filter id="filter0_d_2023_252" x="160" y="132" width="63" height="38" filterUnits="userSpaceOnUse" color-interpolation-filters="sRGB">
<feFlood flood-opacity="0" result="BackgroundImageFix"/>
<feColorMatrix in="SourceAlpha" type="matrix" values="0 0 0 0 0 0 0 0 0 0 0 0 0 0 0 0 0 0 127 0" result="hardAlpha"/>
<feOffset dy="2"/>
<feGaussianBlur stdDeviation="2"/>
<feComposite in2="hardAlpha" operator="out"/>
<feColorMatrix type="matrix" values="0 0 0 0 0 0 0 0 0 0 0 0 0 0 0 0 0 0 0.25 0"/>
<feBlend mode="normal" in2="BackgroundImageFix" result="effect1_dropShadow_2023_252"/>
<feBlend mode="normal" in="SourceGraphic" in2="effect1_dropShadow_2023_252" result="shape"/>
</filter>
<filter id="filter1_d_2023_252" x="83" y="128" width="38" height="40" filterUnits="userSpaceOnUse" color-interpolation-filters="sRGB">
<feFlood flood-opacity="0" result="BackgroundImageFix"/>
<feColorMatrix in="SourceAlpha" type="matrix" values="0 0 0 0 0 0 0 0 0 0 0 0 0 0 0 0 0 0 127 0" result="hardAlpha"/>
<feOffset dx="3"/>
<feGaussianBlur stdDeviation="2"/>
<feComposite in2="hardAlpha" operator="out"/>
<feColorMatrix type="matrix" values="0 0 0 0 0 0 0 0 0 0 0 0 0 0 0 0 0 0 0.25 0"/>
<feBlend mode="normal" in2="BackgroundImageFix" result="effect1_dropShadow_2023_252"/>
<feBlend mode="normal" in="SourceGraphic" in2="effect1_dropShadow_2023_252" result="shape"/>
</filter>
<linearGradient id="paint0_linear_2023_252" x1="190" y1="282" x2="190" y2="29" gradientUnits="userSpaceOnUse">
<stop stop-color="#167D85"/>
<stop offset="1" stop-color="#105E7D"/>
</linearGradient>
<linearGradient id="paint1_linear_2023_252" x1="172.515" y1="164.075" x2="172.515" y2="29" gradientUnits="userSpaceOnUse">
<stop stop-color="#167D85"/>
<stop offset="1" stop-color="#105E7D"/>
</linearGradient>
<linearGradient id="paint2_linear_2023_252" x1="88.5" y1="291" x2="88.5" y2="38" gradientUnits="userSpaceOnUse">
<stop stop-color="#167D85"/>
<stop offset="1" stop-color="#105E7D"/>
</linearGradient>
</defs>
</svg>