<svg width="280" height="280" viewBox="0 0 280 280" fill="none" xmlns="http://www.w3.org/2000/svg">
<path d="M171.287 44.6733C171.287 44.6733 141.91 81.8836 94.9075 59.6887C47.9046 37.4938 0.902421 97.5512 41.3764 134.109C81.8504 170.666 42.2436 190.755 69.7404 213.159C100.992 238.624 128.201 186.987 153.008 198.737C207.758 224.672 248.319 214.405 239.179 184.376C223.136 131.663 202.622 128.233 218.289 100.815C233.957 73.3971 199.378 16.3878 171.287 44.6733Z" fill="#167D85" fill-opacity="0.17"/>
<path d="M196.897 178.517C196.9 179.34 196.741 180.155 196.428 180.915C196.115 181.676 195.655 182.368 195.075 182.95C194.494 183.533 193.805 183.995 193.045 184.311C192.286 184.626 191.471 184.789 190.649 184.789L90.4239 184.993C89.6017 184.995 88.7871 184.835 88.0267 184.522C87.2663 184.209 86.5751 183.749 85.9926 183.169C85.41 182.589 84.9477 181.899 84.6318 181.14C84.316 180.381 84.1529 179.567 84.152 178.744L84.0111 108.274L139.487 73.4455C139.735 73.2889 140.023 73.2051 140.316 73.2037C140.61 73.2023 140.898 73.2834 141.147 73.4376L195.457 107.24L196.756 108.046V109.174L196.897 178.517Z" fill="#167D85" fill-opacity="0.72"/>
<path d="M188.72 79.5109H91.4513C91.2194 79.5109 91.0313 79.699 91.0313 79.9309V184.014C91.0313 184.246 91.2194 184.434 91.4513 184.434H188.72C188.952 184.434 189.14 184.246 189.14 184.014V79.9309C189.14 79.699 188.952 79.5109 188.72 79.5109Z" fill="white"/>
<path d="M190.549 184.69L140.802 146.76C140.762 146.73 140.73 146.69 140.708 146.644C140.686 146.599 140.676 146.549 140.677 146.499C140.678 146.448 140.692 146.399 140.716 146.355C140.74 146.311 140.774 146.273 140.815 146.244L196.255 108.352C196.303 108.32 196.359 108.301 196.417 108.297C196.475 108.294 196.532 108.306 196.583 108.333C196.635 108.36 196.677 108.401 196.707 108.45C196.737 108.5 196.753 108.557 196.753 108.614L196.893 178.483C196.897 180.125 196.256 181.702 195.108 182.875C193.961 184.049 192.398 184.725 190.758 184.759C190.682 184.76 190.609 184.736 190.549 184.69Z" fill="#167D85"/>
<path d="M90.5082 184.889L140.103 146.762C140.143 146.731 140.175 146.691 140.196 146.646C140.218 146.6 140.228 146.55 140.227 146.5C140.225 146.449 140.212 146.4 140.188 146.356C140.163 146.312 140.129 146.274 140.087 146.246L84.4969 108.576C84.449 108.543 84.3931 108.524 84.3353 108.521C84.2776 108.518 84.2201 108.531 84.169 108.558C84.1179 108.585 84.0752 108.626 84.0454 108.675C84.0156 108.725 83.9999 108.782 84 108.84L84.14 178.709C84.1433 180.35 84.7905 181.924 85.9425 183.093C87.0944 184.262 88.6591 184.932 90.3 184.959C90.3753 184.96 90.4486 184.935 90.5082 184.889Z" fill="#167D85"/>
<path d="M190.641 184.76L90.4164 184.96C88.9002 184.959 87.4356 184.409 86.2931 183.413C85.1506 182.416 84.4073 181.039 84.2004 179.537C84.1663 179.281 84.1959 179.021 84.2866 178.779C84.3773 178.537 84.5263 178.321 84.7203 178.15L139.383 129.79C139.669 129.537 140.037 129.397 140.418 129.396C140.799 129.396 141.167 129.534 141.454 129.785L196.309 177.927C196.504 178.097 196.654 178.312 196.746 178.554C196.837 178.795 196.868 179.056 196.835 179.312C196.634 180.815 195.896 182.194 194.758 183.195C193.619 184.197 192.157 184.752 190.641 184.76Z" fill="#1DA6B1"/>
<path d="M132.901 89.3989L92.1374 89.7798C92.0615 89.7805 92.0007 89.8599 92.0016 89.9572L92.0405 94.1142C92.0414 94.2115 92.1037 94.2898 92.1796 94.2891L132.944 93.9083C133.019 93.9076 133.08 93.8281 133.079 93.7308L133.04 89.5738C133.04 89.4765 132.977 89.3982 132.901 89.3989Z" fill="#1DA6B1" fill-opacity="0.15"/>
<path d="M159.415 97.0021L92.2265 97.6298C92.1014 97.6309 92.0008 97.7139 92.0017 97.815L92.0421 102.136C92.043 102.237 92.1452 102.318 92.2703 102.317L159.459 101.69C159.584 101.688 159.684 101.605 159.683 101.504L159.643 97.1831C159.642 97.082 159.54 97.001 159.415 97.0021Z" fill="#1DA6B1" fill-opacity="0.15"/>
<path d="M159.415 105.002L92.2265 105.63C92.1014 105.631 92.0008 105.714 92.0017 105.815L92.0421 110.136C92.043 110.237 92.1452 110.318 92.2703 110.317L159.459 109.69C159.584 109.688 159.684 109.605 159.683 109.504L159.643 105.183C159.642 105.082 159.54 105.001 159.415 105.002Z" fill="#1DA6B1" fill-opacity="0.15"/>
</svg>
