<svg width="280" height="280" viewBox="0 0 280 280" fill="none" xmlns="http://www.w3.org/2000/svg">
<path d="M183.03 48.7481C183.03 48.7481 151.068 89.2336 99.929 65.0847C48.7902 40.9358 -2.34872 106.28 41.6876 146.054C85.7239 185.829 42.631 207.685 72.5475 232.061C106.55 259.767 136.152 203.585 163.142 216.37C222.71 244.587 266.84 233.417 256.897 200.745C239.442 143.393 217.123 139.663 234.168 109.831C251.214 79.9996 213.593 17.9741 183.03 48.7481Z" fill="#167D85" fill-opacity="0.17"/>
<path d="M141.111 135.285V220.223L75.1636 191.739L75.4782 107.108L141.111 135.285Z" fill="#167D85"/>
<path d="M141.112 135.336V220.274L206.738 192.773V107.379L141.112 135.336Z" fill="#17ABBD"/>
<path d="M141.111 135.285L207.058 107.663L141.629 78.6604L75.1636 106.973L141.111 135.285Z" fill="#167D85"/>
<path d="M57.1545 122.125L123.522 154.339C123.7 154.425 123.902 154.451 124.096 154.412C124.291 154.372 124.467 154.27 124.597 154.121L141.111 135.285L75.1636 106.973L57.0068 120.587C56.8827 120.68 56.7845 120.803 56.7218 120.945C56.6592 121.087 56.634 121.243 56.6489 121.397C56.6637 121.552 56.718 121.7 56.8065 121.827C56.8951 121.954 57.0149 122.057 57.1545 122.125Z" fill="#179AA6"/>
<path d="M207.058 107.663L225.373 124.222C225.485 124.323 225.57 124.45 225.62 124.592C225.67 124.735 225.684 124.887 225.66 125.036C225.637 125.184 225.576 125.325 225.485 125.444C225.393 125.564 225.273 125.659 225.135 125.72L159.586 154.975C159.411 155.053 159.216 155.073 159.029 155.033C158.841 154.993 158.671 154.895 158.543 154.752L141.111 135.285L207.058 107.663Z" fill="#179AA6"/>
<path d="M141.628 78.6603L207.241 107.663L216.677 105.476C216.863 105.433 217.03 105.333 217.155 105.189C217.28 105.046 217.357 104.866 217.374 104.676C217.391 104.487 217.348 104.297 217.251 104.133C217.154 103.969 217.008 103.84 216.833 103.764L156.92 77.8042C156.789 77.7474 156.647 77.7224 156.504 77.7314L141.628 78.6603Z" fill="#179AA6"/>
<path d="M141.629 78.6603L76.3836 107.108L68.1358 105.722C67.9448 105.686 67.7704 105.59 67.6383 105.448C67.5062 105.305 67.4234 105.124 67.4022 104.931C67.381 104.738 67.4225 104.543 67.5205 104.375C67.6186 104.208 67.768 104.076 67.9467 104L129.34 77.5417C129.476 77.484 129.623 77.4603 129.77 77.4727L141.629 78.6603Z" fill="#179AA6"/>
<path d="M209.289 207.03C218.286 207.03 225.579 199.737 225.579 190.741C225.579 181.745 218.286 174.452 209.289 174.452C200.293 174.452 193 181.745 193 190.741C193 199.737 200.293 207.03 209.289 207.03Z" fill="#167D85" stroke="white" stroke-width="15" stroke-miterlimit="10"/>
<path d="M212.75 188.463C212.581 187.875 212.344 187.397 212.04 187.033C211.746 186.677 211.365 186.404 210.934 186.241C210.003 185.92 208.992 185.92 208.061 186.241C207.631 186.403 207.25 186.676 206.959 187.033C206.65 187.397 206.414 187.875 206.249 188.463C206.085 189.052 206 189.771 206 190.618V192.344C206 193.191 206.084 193.91 206.253 194.503C206.386 195.029 206.629 195.521 206.967 195.946C207.261 196.305 207.642 196.582 208.074 196.75C209 197.083 210.012 197.083 210.938 196.75C211.368 196.582 211.746 196.305 212.037 195.946C212.369 195.519 212.609 195.028 212.742 194.503C212.907 193.91 212.991 193.191 212.991 192.344H213V190.618C212.999 189.771 212.915 189.052 212.75 188.463ZM211.208 192.602C211.214 193.063 211.177 193.524 211.098 193.978C211.045 194.301 210.935 194.612 210.773 194.896C210.649 195.116 210.464 195.295 210.241 195.413C210.012 195.523 209.76 195.578 209.506 195.573C209.252 195.577 209 195.522 208.771 195.413C208.545 195.294 208.357 195.116 208.226 194.896C208.061 194.612 207.947 194.301 207.888 193.978C207.802 193.525 207.762 193.064 207.77 192.602V190.342C207.763 189.882 207.801 189.423 207.884 188.971C207.94 188.654 208.053 188.35 208.218 188.074C208.349 187.863 208.536 187.693 208.759 187.583C208.989 187.482 209.238 187.43 209.49 187.43C209.741 187.43 209.99 187.482 210.22 187.583C210.445 187.69 210.633 187.861 210.761 188.074C210.926 188.35 211.039 188.654 211.095 188.971C211.179 189.423 211.217 189.882 211.209 190.342V192.602H211.208Z" fill="white"/>
</svg>
