<svg width="280" height="280" viewBox="0 0 280 280" fill="none" xmlns="http://www.w3.org/2000/svg">
<path d="M230.498 109.425C230.498 109.425 198.695 132.318 227.116 190.68C252.358 242.511 182.93 257.203 154.446 248.714C117.547 237.717 100.553 188.09 70.333 200.37C40.1134 212.649 18.225 141.637 62.4916 120.569C117.558 94.3614 85.9144 72.973 92.8052 50.5173C97.7509 34.4007 147.951 13.5993 170.887 45.0873C190.187 71.5832 201.654 63.8818 211.87 61.5823C226.603 58.266 255.407 85.7188 230.498 109.425Z" fill="#167D85" fill-opacity="0.17"/>
<path d="M230.879 129.868L230.661 131.224C230.479 132.354 229.857 133.365 228.929 134.036C228.002 134.706 226.847 134.981 225.717 134.799L225.618 134.784C224.666 134.631 223.691 134.801 222.847 135.267C222.004 135.733 221.34 136.468 220.963 137.355L190.37 209.307C189.487 211.386 187.934 213.11 185.957 214.204C183.98 215.297 181.694 215.696 179.463 215.338L94.1425 201.63C91.8622 201.269 89.775 200.136 88.23 198.42C86.685 196.705 85.776 194.51 85.6549 192.205L81.418 115.056C81.364 114.072 80.9751 113.137 80.316 112.405C79.6568 111.673 78.7671 111.189 77.7947 111.033C77.2353 110.943 76.6991 110.744 76.2168 110.447C75.7344 110.15 75.3152 109.76 74.9832 109.301C74.6513 108.842 74.413 108.322 74.2819 107.771C74.1509 107.22 74.1298 106.648 74.2197 106.089L74.4375 104.733C74.5274 104.174 74.7265 103.637 75.0236 103.155C75.3207 102.673 75.7099 102.253 76.169 101.921C76.628 101.589 77.148 101.351 77.6992 101.22C78.2504 101.089 78.8219 101.068 79.3813 101.158L115.524 106.965C116.079 107.054 116.648 106.981 117.162 106.754C117.677 106.527 118.115 106.157 118.424 105.687L143.666 67.2771C144 66.7661 144.475 66.3628 145.033 66.1157C145.591 65.8686 146.209 65.7883 146.812 65.8845C147.25 65.9522 147.667 66.1139 148.037 66.3585C148.385 66.5866 148.685 66.8811 148.92 67.2253C149.155 67.5694 149.319 67.9565 149.404 68.3643C149.489 68.7721 149.493 69.1926 149.416 69.6019C149.338 70.0112 149.18 70.4011 148.952 70.7495L126.702 104.597C126.435 105.004 126.274 105.471 126.233 105.956C126.193 106.441 126.274 106.929 126.471 107.374C126.667 107.82 126.971 108.209 127.357 108.507C127.742 108.804 128.196 109.001 128.676 109.078L176.779 116.806C177.26 116.883 177.752 116.839 178.212 116.677C178.671 116.515 179.082 116.241 179.408 115.879C179.734 115.517 179.964 115.079 180.078 114.606C180.191 114.132 180.184 113.638 180.057 113.168L169.512 74.0531C169.3 73.2406 169.416 72.3769 169.836 71.6498C170.257 70.9226 170.947 70.3907 171.757 70.1697C172.184 70.053 172.632 70.0303 173.069 70.1032C173.671 70.2007 174.233 70.4704 174.685 70.8799C175.138 71.2894 175.463 71.8212 175.62 72.411L187.56 116.795C187.706 117.338 188.006 117.827 188.424 118.204C188.841 118.58 189.359 118.828 189.914 118.917L227.303 124.924C227.863 125.014 228.399 125.213 228.881 125.51C229.364 125.807 229.783 126.197 230.115 126.656C230.447 127.115 230.685 127.635 230.816 128.186C230.947 128.737 230.969 129.309 230.879 129.868Z" fill="#167D85"/>
<path d="M117.628 119.3L108.206 117.786C108.13 117.773 108.058 117.825 108.046 117.902L96.8164 187.79C96.8041 187.866 96.856 187.938 96.9324 187.95L106.354 189.464C106.431 189.476 106.503 189.425 106.515 189.348L117.744 119.46C117.756 119.384 117.704 119.312 117.628 119.3Z" fill="#DEE9FF"/>
<path d="M195.624 131.609L186.202 130.095C186.126 130.082 186.054 130.134 186.042 130.211L174.812 200.099C174.8 200.175 174.852 200.247 174.928 200.259L184.35 201.773C184.427 201.786 184.498 201.734 184.511 201.657L195.74 131.769C195.752 131.693 195.7 131.621 195.624 131.609Z" fill="#DEE9FF"/>
<path d="M137.031 122.438L127.612 120.92C127.536 120.908 127.464 120.96 127.452 121.036L116.197 190.901C116.184 190.977 116.236 191.049 116.313 191.061L125.731 192.579C125.808 192.591 125.88 192.539 125.892 192.463L137.147 122.598C137.159 122.522 137.107 122.45 137.031 122.438Z" fill="#DEE9FF"/>
<path d="M156.643 125.345L147.221 123.831C147.145 123.819 147.073 123.871 147.061 123.947L135.832 193.835C135.819 193.912 135.871 193.984 135.948 193.996L145.37 195.51C145.446 195.522 145.518 195.47 145.53 195.394L156.759 125.506C156.772 125.429 156.72 125.357 156.643 125.345Z" fill="#DEE9FF"/>
<path d="M176.134 128.477L166.712 126.963C166.636 126.951 166.564 127.003 166.552 127.079L155.322 196.967C155.31 197.043 155.362 197.115 155.438 197.128L164.86 198.641C164.937 198.654 165.008 198.602 165.021 198.525L176.25 128.637C176.262 128.561 176.21 128.489 176.134 128.477Z" fill="#DEE9FF"/>
<path d="M191.289 207.03C200.286 207.03 207.579 199.737 207.579 190.741C207.579 181.745 200.286 174.452 191.289 174.452C182.293 174.452 175 181.745 175 190.741C175 199.737 182.293 207.03 191.289 207.03Z" fill="#167D85" stroke="white" stroke-width="15" stroke-miterlimit="10"/>
<path d="M193.786 188.239C193.641 187.705 193.438 187.27 193.177 186.939C192.925 186.616 192.598 186.368 192.229 186.219C191.431 185.927 190.564 185.927 189.767 186.219C189.398 186.367 189.072 186.615 188.822 186.939C188.558 187.27 188.355 187.705 188.214 188.239C188.072 188.774 188 189.428 188 190.198V191.768C188 192.537 188.072 193.191 188.217 193.73C188.331 194.209 188.54 194.656 188.829 195.042C189.081 195.369 189.407 195.62 189.778 195.773C190.571 196.076 191.439 196.076 192.233 195.773C192.601 195.62 192.925 195.368 193.174 195.042C193.459 194.654 193.665 194.207 193.779 193.73C193.92 193.191 193.992 192.537 193.992 191.768H194V190.198C193.999 189.428 193.927 188.774 193.786 188.239ZM192.464 192.002C192.469 192.421 192.438 192.84 192.37 193.253C192.324 193.546 192.23 193.829 192.091 194.087C191.985 194.287 191.826 194.45 191.635 194.557C191.439 194.657 191.223 194.707 191.005 194.703C190.787 194.707 190.572 194.657 190.375 194.557C190.182 194.449 190.02 194.287 189.908 194.087C189.767 193.829 189.669 193.547 189.619 193.253C189.544 192.841 189.511 192.422 189.517 192.002V189.947C189.511 189.53 189.544 189.112 189.615 188.701C189.663 188.413 189.76 188.136 189.901 187.885C190.014 187.693 190.174 187.539 190.365 187.439C190.562 187.347 190.776 187.3 190.991 187.3C191.207 187.3 191.42 187.347 191.617 187.439C191.81 187.536 191.971 187.691 192.081 187.885C192.222 188.136 192.319 188.413 192.367 188.701C192.439 189.112 192.472 189.53 192.465 189.947V192.002H192.464Z" fill="white"/>
<path d="M173.603 43.8974C173.103 43.5013 172.775 42.9272 172.688 42.2951C172.601 41.663 172.762 41.0218 173.137 40.5055L186.967 21.4572C187.163 21.1874 187.412 20.96 187.698 20.7887C187.984 20.6174 188.301 20.5057 188.632 20.4603C188.962 20.4149 189.298 20.4367 189.62 20.5245C189.941 20.6123 190.242 20.7643 190.503 20.9712L192.04 22.1878C192.302 22.3948 192.518 22.6525 192.678 22.9454C192.837 23.2384 192.935 23.5605 192.967 23.8924C192.999 24.2244 192.963 24.5593 192.862 24.877C192.76 25.1947 192.596 25.4887 192.378 25.7413L177.012 43.5729C176.595 44.0563 176.008 44.36 175.372 44.4205C174.737 44.481 174.103 44.2935 173.603 43.8974V43.8974Z" fill="#167D85" fill-opacity="0.71"/>
<path d="M162.848 39.258C162.448 39.1352 162.111 38.8626 161.908 38.4971C161.704 38.1316 161.65 37.7016 161.756 37.2969L165.669 22.3662C165.725 22.1547 165.822 21.9567 165.956 21.7839C166.09 21.6111 166.258 21.4672 166.449 21.3608C166.64 21.2544 166.85 21.1877 167.068 21.1648C167.285 21.1418 167.505 21.1631 167.714 21.2273L168.942 21.6046C169.151 21.6688 169.345 21.7746 169.512 21.9156C169.679 22.0566 169.816 22.23 169.914 22.4252C170.013 22.6205 170.071 22.8336 170.085 23.0518C170.098 23.27 170.068 23.4887 169.995 23.6949L164.854 38.2482C164.714 38.6427 164.428 38.9682 164.054 39.1564C163.68 39.3446 163.248 39.381 162.848 39.258Z" fill="#167D85" fill-opacity="0.71"/>
<path d="M152.898 42.8139C151.63 43.2024 150.197 42.2465 149.649 40.6471L139.922 12.2468C139.341 10.5495 139.977 8.79293 141.322 8.38055L143.195 7.80634C144.54 7.39426 146.052 8.49345 146.521 10.2244L154.374 39.1987C154.817 40.8311 154.165 42.4254 152.898 42.8139Z" fill="#167D85" fill-opacity="0.71"/>
</svg>
