<svg width="260" height="260" viewBox="0 0 260 260" fill="none" xmlns="http://www.w3.org/2000/svg">
<g clip-path="url(#clip0_113_2734)">
<path d="M2 2C86.48 2 170.96 2 258 2C258 86.48 258 170.96 258 258C173.52 258 89.04 258 2 258C2 173.52 2 89.04 2 2Z" fill="#D2D6DA"/>
<path d="M164.058 33.2555C169.887 37.6017 173.87 42.4254 177.262 48.7689C177.474 49.1637 177.685 49.5584 177.904 49.9651C181.005 56.3362 183.598 66.3567 182.185 73.3843C180.836 74.7148 179.441 75.517 177.754 76.3382C177.729 76.8189 177.705 77.2996 177.679 77.7949C177.585 79.6192 177.487 81.4432 177.387 83.2672C177.345 84.0491 177.304 84.831 177.264 85.6129C176.992 90.9286 176.521 96.1738 175.785 101.446C176.33 101.424 176.875 101.401 177.437 101.379C179.231 101.446 179.231 101.446 180.369 102.523C183.226 107.283 182.304 111.858 181.127 117.071C180.722 118.621 180.239 120.114 179.723 121.63C179.491 122.379 179.261 123.129 179.033 123.879C178.909 124.28 178.786 124.681 178.659 125.095C178.404 125.925 178.151 126.756 177.901 127.587C176.605 131.773 176.605 131.773 175.292 133.446C173.477 133.846 173.477 133.846 171.846 133.938C171.858 134.441 171.87 134.945 171.883 135.463C171.756 142.112 169.514 149.55 166.127 155.285C163.654 159.491 163.019 162.339 163.812 167.285C163.987 168.525 164.083 169.758 164.169 171.007C164.82 180.331 165.977 190.068 172.452 197.273C176.373 200.602 181.266 202.735 185.826 205.057C187.365 205.84 188.903 206.627 190.44 207.414C191.209 207.808 191.979 208.202 192.749 208.596C196.73 210.633 200.696 212.701 204.658 214.777C206.503 215.743 208.352 216.701 210.204 217.654C243.24 234.684 243.24 234.684 248.837 251.582C250.123 255.957 250.123 255.957 250.123 258C170.842 258 91.5606 258 9.87695 258C12.4532 245.118 19.0799 236.288 29.9481 229.017C30.4729 228.671 30.9978 228.325 31.5385 227.969C32.0075 227.659 32.4765 227.348 32.9596 227.029C35.5336 225.358 38.1554 223.83 40.8616 222.384C42.3049 221.604 43.7302 220.798 45.1551 219.984C48.4125 218.128 51.7012 216.377 55.0648 214.721C57.6673 213.438 60.2364 212.097 62.8 210.738C65.6349 209.237 68.4793 207.762 71.3539 206.338C72.3226 205.854 73.291 205.37 74.2592 204.885C75.0508 204.489 75.8436 204.097 76.637 203.705C78.0184 203.021 79.3941 202.327 80.7693 201.63C81.1988 201.42 81.6284 201.21 82.0709 200.994C86.8959 198.526 90.171 195.155 92.0923 190.061C94.5859 182.231 95.8094 174.104 96.5231 165.938C96.577 165.402 96.631 164.866 96.6866 164.313C96.8619 161.365 96.3954 159.983 94.4808 157.769C89.6984 151.554 86.1846 141.71 86.1846 133.938C85.748 133.999 85.3114 134.06 84.8616 134.123C83.2308 133.938 83.2308 133.938 81.9789 132.684C80.6796 131.022 80.0362 129.247 79.477 127.23C79.3755 126.885 79.2741 126.54 79.1696 126.184C78.8728 125.161 78.5879 124.135 78.3077 123.107C78.0859 122.297 78.0859 122.297 77.8596 121.471C77.4905 120.052 77.151 118.631 76.8308 117.2C76.7293 116.751 76.6277 116.302 76.5231 115.84C75.5006 110.863 74.9826 106.354 77.8154 101.938C79.3979 101.147 80.984 101.418 82.7385 101.446C82.6629 101.071 82.5872 100.696 82.5093 100.31C82.1585 97.8858 82.0663 95.4769 81.975 93.0305C81.9544 92.4921 81.9338 91.9536 81.9126 91.3989C81.7073 85.5788 81.6623 79.76 81.6627 73.9367C81.6616 72.141 81.6525 70.3454 81.6433 68.5497C81.5907 46.9048 81.5907 46.9048 88.3923 39.0651C91.4176 36.1147 95.7889 34.7461 99.877 34.0305C101.958 33.6263 103.189 32.6869 104.815 31.367C107.888 29.0123 111.304 27.4425 115.027 26.4439C116.567 26.0278 118.059 25.4985 119.562 24.9651C133.403 20.8911 152.264 25.2027 164.058 33.2555Z" fill="#FEFEFE"/>
</g>
<rect x="2" y="2" width="256" height="256" rx="128" stroke="#E5E5E5" stroke-width="4"/>
<defs>
<clipPath id="clip0_113_2734">
<rect x="2" y="2" width="256" height="256" rx="128" fill="white"/>
</clipPath>
</defs>
</svg>
